<svg width="26" height="26" viewBox="0 0 26 26" fill="none" xmlns="http://www.w3.org/2000/svg">
<g clip-path="url(#clip0_22_1246)">
<path fill-rule="evenodd" clip-rule="evenodd" d="M17.204 0.524477C17.2222 0.498514 17.2579 0.492204 17.2839 0.510384L19.0591 1.75335C19.085 1.77153 19.0913 1.80731 19.0732 1.83327L16.6025 5.36176C17.8036 5.74549 18.6219 6.15941 18.6219 6.15941C18.6219 6.15941 16.6217 9.6 13.2291 9.6C9.83654 9.6 7.42581 6.39331 7.42581 6.39331C7.42581 6.39331 8.28061 5.84779 9.54772 5.37992L6.83772 2.1503C6.81735 2.12602 6.82053 2.08982 6.8448 2.06945L8.50483 0.676499C8.52915 0.656126 8.56533 0.659293 8.58569 0.683573L12.017 4.77284C12.3108 4.73961 12.6101 4.72103 12.9122 4.72103C13.3463 4.72103 13.7799 4.75404 14.2032 4.81004L17.204 0.524477ZM17.8752 9.76294C18.7805 9.11635 20.1505 7.42872 20.1505 7.42872C20.1505 7.42872 23.6497 10.2017 23.6497 16.0815C23.6497 21.9612 17.6 25.5 17.6 25.5C17.6 25.5 14.7096 22.581 14 18.8807C13.2905 15.1804 15.0497 11.0716 15.0497 11.0716C15.0497 11.0716 16.9698 10.4095 17.8752 9.76294V9.76294ZM8.1249 9.76294C7.21956 9.11635 5.84962 7.42872 5.84962 7.42872C5.84962 7.42872 2.35034 10.2017 2.35034 16.0815C2.35034 21.9612 8.40005 25.5 8.40005 25.5C8.40005 25.5 11.2905 22.581 12.0001 18.8807C12.7096 15.1804 10.9504 11.0716 10.9504 11.0716C10.9504 11.0716 9.03028 10.4095 8.1249 9.76294V9.76294Z" fill="#8CB330"/>
</g>
<defs>
<clipPath id="clip0_22_1246">
<rect width="25" height="25" fill="white" transform="translate(0.5 0.5)"/>
</clipPath>
</defs>
</svg>
