<svg width="51" height="51" viewBox="0 0 51 51" fill="none" xmlns="http://www.w3.org/2000/svg">
<circle cx="25.5" cy="25.5" r="25.5" fill="#8CB230"/>
<path fill-rule="evenodd" clip-rule="evenodd" d="M29.8537 13.0245C29.8719 12.9985 29.9076 12.9922 29.9336 13.0104L31.7087 14.2533C31.7347 14.2715 31.741 14.3073 31.7228 14.3333L29.2521 17.8618C30.4533 18.2455 31.2716 18.6594 31.2716 18.6594C31.2716 18.6594 29.2714 22.1 25.8788 22.1C22.4862 22.1 20.0755 18.8933 20.0755 18.8933C20.0755 18.8933 20.9303 18.3478 22.1974 17.8799L19.4874 14.6503C19.467 14.626 19.4702 14.5898 19.4945 14.5694L21.1545 13.1765C21.1788 13.1561 21.215 13.1593 21.2354 13.1836L24.6667 17.2728C24.9605 17.2396 25.2598 17.221 25.5618 17.221C25.996 17.221 26.4296 17.254 26.8529 17.31L29.8537 13.0245ZM30.5249 22.2629C31.4302 21.6163 32.8001 19.9287 32.8001 19.9287C32.8001 19.9287 36.2994 22.7017 36.2994 28.5815C36.2994 34.4612 30.2497 38 30.2497 38C30.2497 38 27.3593 35.081 26.6497 31.3807C25.9402 27.6804 27.6993 23.5716 27.6993 23.5716C27.6993 23.5716 29.6195 22.9095 30.5249 22.2629V22.2629ZM20.7746 22.2629C19.8692 21.6163 18.4993 19.9287 18.4993 19.9287C18.4993 19.9287 15 22.7017 15 28.5815C15 34.4612 21.0497 38 21.0497 38C21.0497 38 23.9401 35.081 24.6497 31.3807C25.3592 27.6804 23.6001 23.5716 23.6001 23.5716C23.6001 23.5716 21.6799 22.9095 20.7746 22.2629V22.2629Z" fill="white"/>
</svg>
