<svg width="90" height="90" viewBox="0 0 90 90" fill="none" xmlns="http://www.w3.org/2000/svg">
<g filter="url(#filter0_d_53_1207)">
<rect x="20" y="10" width="50" height="50" rx="25" fill="#8CB330"/>
<g clip-path="url(#clip0_53_1207)">
<path fill-rule="evenodd" clip-rule="evenodd" d="M49.2037 22.5245C49.222 22.4985 49.2577 22.4922 49.2837 22.5104L51.0588 23.7533C51.0848 23.7715 51.0911 23.8073 51.0729 23.8333L48.6022 27.3618C49.8034 27.7455 50.6217 28.1594 50.6217 28.1594C50.6217 28.1594 48.6215 31.6 45.2289 31.6C41.8363 31.6 39.4256 28.3933 39.4256 28.3933C39.4256 28.3933 40.2804 27.8478 41.5475 27.3799L38.8375 24.1503C38.8171 24.126 38.8203 24.0898 38.8446 24.0694L40.5046 22.6765C40.5289 22.6561 40.5651 22.6593 40.5854 22.6836L44.0168 26.7728C44.3106 26.7396 44.6099 26.721 44.9119 26.721C45.3461 26.721 45.7797 26.754 46.203 26.81L49.2037 22.5245ZM49.8749 31.7629C50.7803 31.1163 52.1502 29.4287 52.1502 29.4287C52.1502 29.4287 55.6495 32.2017 55.6495 38.0815C55.6495 43.9612 49.5998 47.5 49.5998 47.5C49.5998 47.5 46.7094 44.581 45.9998 40.8807C45.2903 37.1804 47.0494 33.0716 47.0494 33.0716C47.0494 33.0716 48.9696 32.4095 49.8749 31.7629V31.7629ZM40.1247 31.7629C39.2193 31.1163 37.8494 29.4287 37.8494 29.4287C37.8494 29.4287 34.3501 32.2017 34.3501 38.0815C34.3501 43.9612 40.3998 47.5 40.3998 47.5C40.3998 47.5 43.2902 44.581 43.9998 40.8807C44.7093 37.1804 42.9502 33.0716 42.9502 33.0716C42.9502 33.0716 41.03 32.4095 40.1247 31.7629V31.7629Z" fill="white"/>
</g>
</g>
<defs>
<filter id="filter0_d_53_1207" x="0" y="0" width="90" height="90" filterUnits="userSpaceOnUse" color-interpolation-filters="sRGB">
<feFlood flood-opacity="0" result="BackgroundImageFix"/>
<feColorMatrix in="SourceAlpha" type="matrix" values="0 0 0 0 0 0 0 0 0 0 0 0 0 0 0 0 0 0 127 0" result="hardAlpha"/>
<feOffset dy="10"/>
<feGaussianBlur stdDeviation="10"/>
<feColorMatrix type="matrix" values="0 0 0 0 0.54902 0 0 0 0 0.698039 0 0 0 0 0.188235 0 0 0 0.3 0"/>
<feBlend mode="normal" in2="BackgroundImageFix" result="effect1_dropShadow_53_1207"/>
<feBlend mode="normal" in="SourceGraphic" in2="effect1_dropShadow_53_1207" result="shape"/>
</filter>
<clipPath id="clip0_53_1207">
<rect width="25" height="25" fill="white" transform="translate(32.5 22.5)"/>
</clipPath>
</defs>
</svg>
