<svg width="26" height="26" viewBox="0 0 26 26" fill="none" xmlns="http://www.w3.org/2000/svg">
<g clip-path="url(#clip0_22_1267)">
<path fill-rule="evenodd" clip-rule="evenodd" d="M9.22619 23.8332C12.8885 23.8332 16.0238 21.7978 17.3182 18.9124C17.334 18.8772 12.1215 20.2671 12.2877 19.7758C12.3619 19.5564 15.5572 18.3891 17.8852 17.0276C19.2232 16.245 19.8394 14.5884 19.8394 14.5884C19.8394 14.5884 17.5851 15.6829 16.4455 15.9605C14.1491 16.5201 12.1275 16.4598 12.1275 16.4015C12.1275 16.2755 15.4842 15.6377 20.1496 12.7947C22.3441 11.4574 22.9402 9.15397 22.9402 9.15397C22.9402 9.15397 20.5275 10.5911 19.069 11.0655C15.6102 12.1907 12.4539 12.5298 12.4539 12.3775C12.4539 12.0515 15.2316 11.2877 18.1766 9.86071C19.7079 9.11876 21.034 8.14943 22.5707 7.07145C25.0853 5.30772 25.5 2.1665 25.5 2.1665C25.5 2.1665 23.0199 3.76612 21.8096 4.29734C16.8155 6.48932 12.4057 7.63912 9.22619 7.88805C4.42657 8.26383 0.5 11.6126 0.5 15.9605C0.5 20.3085 4.40684 23.8332 9.22619 23.8332Z" fill="#748FC9"/>
</g>
<defs>
<clipPath id="clip0_22_1267">
<rect width="25" height="25" fill="white" transform="translate(0.5 0.5)"/>
</clipPath>
</defs>
</svg>
