<svg width="51" height="51" viewBox="0 0 51 51" fill="none" xmlns="http://www.w3.org/2000/svg">
<circle cx="25.5" cy="25.5" r="25.5" fill="#748FC9"/>
<path fill-rule="evenodd" clip-rule="evenodd" d="M21.7262 36.6667C25.3885 36.6667 28.5238 34.6313 29.8182 31.7459C29.834 31.7107 24.6215 33.1006 24.7877 32.6093C24.8619 32.3899 28.0572 31.2226 30.3852 29.8611C31.7232 29.0785 32.3394 27.4219 32.3394 27.4219C32.3394 27.4219 30.0851 28.5164 28.9455 28.794C26.6491 29.3536 24.6275 29.2933 24.6275 29.235C24.6275 29.109 27.9842 28.4712 32.6496 25.6281C34.8441 24.2909 35.4402 21.9875 35.4402 21.9875C35.4402 21.9875 33.0275 23.4246 31.569 23.899C28.1102 25.0242 24.9539 25.3633 24.9539 25.211C24.9539 24.885 27.7316 24.1212 30.6766 22.6942C32.2079 21.9523 33.534 20.9829 35.0707 19.9049C37.5853 18.1412 38 15 38 15C38 15 35.5199 16.5996 34.3096 17.1308C29.3155 19.3228 24.9057 20.4726 21.7262 20.7215C16.9266 21.0973 13 24.4461 13 28.794C13 33.142 16.9068 36.6667 21.7262 36.6667Z" fill="white"/>
</svg>
