<svg width="26" height="26" viewBox="0 0 26 26" fill="none" xmlns="http://www.w3.org/2000/svg">
<g clip-path="url(#clip0_22_1279)">
<path d="M12.6278 5.15036L6.41863 2.0752L6.60643 8.9483L12.469 11.8518L12.6278 5.15036Z" fill="#61CEC0"/>
<path d="M19.5212 9.03199L19.4423 2.10348L13.4036 5.39111L13.4781 11.9329L19.5212 9.03199Z" fill="#61CEC0"/>
<path d="M19.5177 16.4429L25.5 13.0211L19.5146 9.87312L13.5319 13.0157L19.5177 16.4429Z" fill="#61CEC0"/>
<path d="M12.4681 13.0211L6.48583 16.4429L0.5 13.0157L6.48272 9.87312L12.4681 13.0211Z" fill="#61CEC0"/>
<path d="M19.6113 23.8623L13.4021 20.7871L13.5609 14.0856L19.4235 16.9892L19.6113 23.8623Z" fill="#61CEC0"/>
<path d="M6.55413 16.9963L6.63306 23.9248L12.6718 20.6372L12.5973 14.0954L6.55413 16.9963Z" fill="#61CEC0"/>
</g>
<defs>
<clipPath id="clip0_22_1279">
<rect width="25" height="25" fill="white" transform="translate(0.5 0.5)"/>
</clipPath>
</defs>
</svg>
