<svg width="13" height="15" viewBox="0 0 13 15" fill="none" xmlns="http://www.w3.org/2000/svg">
<path fill-rule="evenodd" clip-rule="evenodd" d="M9.02237 0.0146861C9.03329 -0.000891719 9.05474 -0.00467756 9.07033 0.00623019L10.1354 0.75201C10.151 0.762917 10.1548 0.784386 10.1439 0.799964L8.66145 2.91706C9.38214 3.1473 9.87313 3.39565 9.87313 3.39565C9.87313 3.39565 8.673 5.46 6.63745 5.46C4.6019 5.46 3.15546 3.53598 3.15546 3.53598C3.15546 3.53598 3.66834 3.20867 4.4286 2.92795L2.8026 0.99018C2.79038 0.97561 2.79229 0.953892 2.80685 0.941669L3.80287 0.1059C3.81746 0.0936759 3.83917 0.0955758 3.85139 0.110144L5.91017 2.5637C6.08645 2.54376 6.26604 2.53262 6.44728 2.53262C6.70776 2.53262 6.96792 2.55242 7.2219 2.58603L9.02237 0.0146861ZM9.42509 5.55776C9.96829 5.16981 10.7903 4.15723 10.7903 4.15723C10.7903 4.15723 12.8898 5.82103 12.8898 9.3489C12.8898 12.8767 9.26 15 9.26 15C9.26 15 7.52574 13.2486 7.09999 11.0284C6.67427 8.80821 7.72977 6.34296 7.72977 6.34296C7.72977 6.34296 8.88186 5.94572 9.42509 5.55776ZM3.57491 5.55776C3.03171 5.16981 2.20974 4.15723 2.20974 4.15723C2.20974 4.15723 0.110176 5.82103 0.110176 9.3489C0.110176 12.8767 3.74 15 3.74 15C3.74 15 5.47425 13.2486 5.9 11.0284C6.32572 8.80821 5.27023 6.34296 5.27023 6.34296C5.27023 6.34296 4.11814 5.94572 3.57491 5.55776Z" fill="white"/>
</svg>
