<svg width="13" height="15" viewBox="0 0 13 15" fill="none" xmlns="http://www.w3.org/2000/svg">
<path fill-rule="evenodd" clip-rule="evenodd" d="M9.32507 11.5838C9.5104 10.9061 9.15067 9.51299 9.15067 9.51299C9.15067 9.51299 8.88975 10.6479 8.48205 11.0674C8.13424 11.4252 7.70812 11.6734 7.09698 11.7386C7.59664 11.4959 7.94027 10.9898 7.94027 10.4049C7.94027 9.58386 7.26316 8.91824 6.4279 8.91824C5.59265 8.91824 4.91551 9.58386 4.91551 10.4049C4.91551 10.6292 4.96605 10.8418 5.05649 11.0325C4.53406 10.6163 4.45192 9.94905 4.45192 9.94905C4.45192 9.94905 3.86856 12.371 5.47596 13.5103C7.08333 14.6496 10.2321 13.6703 10.2321 13.6703C10.2321 13.6703 5.72601 16.8409 2.38692 13.3901C-0.489421 10.4175 1.63619 6.504 1.63619 6.504C1.63619 6.504 1.54439 6.86704 1.54439 7.28848C1.54439 7.70992 1.77289 8.03057 1.77289 8.03057C1.77289 8.03057 2.45448 6.59388 2.98493 6.00961C3.48696 5.45666 4.11629 5.00819 4.65986 4.62082C5.07828 4.32264 5.4459 4.06067 5.66545 3.81513C6.87474 2.46295 6.13326 0 6.13326 0C6.13326 0 7.49645 1.20176 7.87701 2.75384C8.02209 3.34547 7.92875 4.01862 7.84531 4.62059C7.70985 5.59782 7.60036 6.38745 8.57903 6.33621C10.1605 6.25339 8.78624 3.81513 8.78624 3.81513C8.78624 3.81513 12.3737 5.70068 12.1057 8.99839C11.8377 12.2961 8.18443 13.0458 8.18443 13.0458C8.18443 13.0458 9.13971 12.2615 9.32507 11.5838Z" fill="white"/>
</svg>
