<svg width="11" height="15" viewBox="0 0 11 15" fill="none" xmlns="http://www.w3.org/2000/svg">
<path fill-rule="evenodd" clip-rule="evenodd" d="M10.366 10.1523C10.366 12.8296 8.18743 15 5.5 15C2.81256 15 0.63398 12.8296 0.63398 10.1523C0.63398 7.54836 5.23678 0.396929 5.48922 0.00667442C5.49499 -0.00222486 5.50504 -0.00222478 5.51078 0.00667451C5.76321 0.396929 10.366 7.54836 10.366 10.1523ZM4.68885 13.4458C2.2196 12.9056 2.64214 10.1703 2.64214 10.1703C2.64214 10.1703 3.3164 11.8215 4.95268 12.3563C6.58892 12.8912 8.56632 12.1067 8.56632 12.1067C8.56632 12.1067 7.1581 13.9861 4.68885 13.4458Z" fill="white"/>
</svg>
