<svg width="26" height="26" viewBox="0 0 26 26" fill="none" xmlns="http://www.w3.org/2000/svg">
<g clip-path="url(#clip0_22_1291)">
<path fill-rule="evenodd" clip-rule="evenodd" d="M19.8027 12.4738C19.8013 12.4718 19.8007 12.4694 19.8011 12.467L21.3928 3.18611C21.3935 3.18183 21.3972 3.17871 21.4015 3.17871H21.9053C21.9092 3.17871 21.9126 3.18123 21.9137 3.18493L25.4996 14.5386C25.5007 14.5421 25.4995 14.546 25.4966 14.5482L22.8527 16.6125C22.8487 16.6156 22.843 16.6148 22.8401 16.6107L19.8027 12.4738ZM0.5 18.6263C0.5 18.6302 0.502475 18.6336 0.506134 18.6348L5.95624 20.4168C5.95887 20.4177 5.96179 20.4173 5.96408 20.4157L18.1463 12.0054C18.1484 12.004 18.1498 12.0018 18.1501 11.9993L19.4565 3.23369C19.4573 3.22832 19.4531 3.22348 19.4477 3.22348H8.65724C8.65456 3.22348 8.65208 3.22466 8.65037 3.2267L0.502048 13.0564C0.500724 13.058 0.5 13.06 0.5 13.0621V18.6263ZM8.22732 20.8709L14.1815 22.8213C14.1841 22.8221 14.1871 22.8217 14.1894 22.82L21.2782 17.7352C21.2821 17.7324 21.2831 17.727 21.2804 17.723L18.623 13.7686C18.6203 13.7644 18.6147 13.7634 18.6106 13.7662L8.22732 20.8709Z" fill="#BAAB82"/>
</g>
<defs>
<clipPath id="clip0_22_1291">
<rect width="25" height="25" fill="white" transform="translate(0.5 0.5)"/>
</clipPath>
</defs>
</svg>
