<svg width="50" height="50" viewBox="0 0 50 50" fill="none" xmlns="http://www.w3.org/2000/svg">
<rect width="50" height="50" rx="25" fill="#BAAB82"/>
<g clip-path="url(#clip0_53_1252)">
<path fill-rule="evenodd" clip-rule="evenodd" d="M31.8027 24.4738C31.8013 24.4718 31.8007 24.4694 31.8011 24.467L33.3928 15.1861C33.3935 15.1818 33.3972 15.1787 33.4015 15.1787H33.9053C33.9092 15.1787 33.9126 15.1812 33.9137 15.1849L37.4996 26.5386C37.5007 26.5421 37.4995 26.546 37.4966 26.5482L34.8527 28.6125C34.8487 28.6156 34.843 28.6148 34.8401 28.6107L31.8027 24.4738ZM12.5 30.6263C12.5 30.6302 12.5025 30.6336 12.5061 30.6348L17.9562 32.4168C17.9589 32.4177 17.9618 32.4173 17.9641 32.4157L30.1463 24.0054C30.1484 24.004 30.1498 24.0018 30.1501 23.9993L31.4565 15.2337C31.4573 15.2283 31.4531 15.2235 31.4477 15.2235H20.6572C20.6546 15.2235 20.6521 15.2247 20.6504 15.2267L12.502 25.0564C12.5007 25.058 12.5 25.06 12.5 25.0621V30.6263ZM20.2273 32.8709L26.1815 34.8213C26.1841 34.8221 26.1871 34.8217 26.1894 34.82L33.2782 29.7352C33.2821 29.7324 33.2831 29.727 33.2804 29.723L30.623 25.7686C30.6203 25.7644 30.6147 25.7634 30.6106 25.7662L20.2273 32.8709Z" fill="white"/>
</g>
<defs>
<clipPath id="clip0_53_1252">
<rect width="25" height="25" fill="white" transform="translate(12.5 12.5)"/>
</clipPath>
</defs>
</svg>
