<svg width="26" height="26" viewBox="0 0 26 26" fill="none" xmlns="http://www.w3.org/2000/svg">
<g clip-path="url(#clip0_22_1276)">
<path fill-rule="evenodd" clip-rule="evenodd" d="M6.00607 21.992C5.99929 21.992 5.99455 21.9853 5.9968 21.9789L12.3794 3.94404C12.3808 3.94012 12.3845 3.9375 12.3887 3.9375H19.2023C19.2064 3.9375 19.2102 3.94014 19.2115 3.94409L25.4995 21.9789C25.5017 21.9853 25.4969 21.992 25.4902 21.992H6.19787H6.00607ZM0.509829 22.0625C0.502974 22.0625 0.498228 22.0557 0.500633 22.0493L5.25356 9.36018C5.255 9.35632 5.25866 9.35378 5.26276 9.35378H9.39251C9.39935 9.35378 9.40409 9.36057 9.40174 9.36696L4.80579 22.0561C4.80439 22.0599 4.80069 22.0625 4.79656 22.0625H0.509829Z" fill="#DD7748"/>
</g>
<defs>
<clipPath id="clip0_22_1276">
<rect width="25" height="25" fill="white" transform="translate(0.5 0.5)"/>
</clipPath>
</defs>
</svg>
