<svg width="51" height="51" viewBox="0 0 51 51" fill="none" xmlns="http://www.w3.org/2000/svg">
<circle cx="25.5" cy="25.5" r="25.5" fill="#D04164"/>
<path fill-rule="evenodd" clip-rule="evenodd" d="M17.4782 15.0784C17.7808 13.8839 18.8629 13 20.1515 13C21.1181 13 21.9685 13.4973 22.4609 14.25H23.2672C23.7681 13.7359 24.468 13.4167 25.2424 13.4167C26.3779 13.4167 27.3531 14.1029 27.7758 15.0833H28.4509C28.8739 14.8193 29.3737 14.6667 29.9091 14.6667C31.0446 14.6667 32.0197 15.3529 32.4425 16.3333H34.2782C34.2938 16.3333 34.3085 16.3376 34.3212 16.3449C34.405 16.3373 34.4899 16.3333 34.5757 16.3333C36.0987 16.3333 37.3333 17.5679 37.3333 19.0909V27.3597L37.3333 27.375L37.3333 27.3903V27.5094C37.3333 27.5599 37.3319 27.6101 37.3292 27.6601C37.1633 33.3963 32.0053 38 25.6667 38C19.2233 38 14 33.243 14 27.375C14 24.5425 15.217 21.9689 17.2009 20.0642C17.1959 22.8256 17.2425 25.6804 17.4576 25.6314C18.0333 25.5001 17.5835 16.9472 17.4782 15.0784Z" fill="white"/>
</svg>
