<svg width="26" height="26" viewBox="0 0 26 26" fill="none" xmlns="http://www.w3.org/2000/svg">
<g clip-path="url(#clip0_22_1261)">
<path fill-rule="evenodd" clip-rule="evenodd" d="M4.81158 2.5784C5.11413 1.38386 6.19631 0.5 7.48489 0.5C8.45144 0.5 9.30188 0.9973 9.79426 1.75H10.6006C11.1015 1.23592 11.8013 0.916667 12.5758 0.916667C13.7113 0.916667 14.6865 1.60294 15.1092 2.58333H15.7843C16.2073 2.31926 16.7071 2.16667 17.2425 2.16667C18.378 2.16667 19.3531 2.85294 19.7759 3.83333H21.6115C21.6272 3.83333 21.6419 3.83756 21.6546 3.84493C21.7384 3.83726 21.8233 3.83333 21.9091 3.83333C23.4321 3.83333 24.6667 5.06794 24.6667 6.59092V14.8597L24.6667 14.875L24.6667 14.8903V15.0094C24.6667 15.0599 24.6653 15.1101 24.6626 15.1601C24.4967 20.8963 19.3387 25.5 13 25.5C6.55671 25.5 1.33337 20.743 1.33337 14.875C1.33337 12.0425 2.55041 9.4689 4.53423 7.56421C4.52928 10.3256 4.57592 13.1804 4.79093 13.1314C5.36663 13.0001 4.91683 4.44724 4.81158 2.5784Z" fill="#D04164"/>
</g>
<defs>
<clipPath id="clip0_22_1261">
<rect width="25" height="25" fill="white" transform="translate(0.5 0.5)"/>
</clipPath>
</defs>
</svg>
