<svg width="51" height="51" viewBox="0 0 51 51" fill="none" xmlns="http://www.w3.org/2000/svg">
<circle cx="25.5" cy="25.5" r="25.5" fill="#ED6EC7"/>
<path fill-rule="evenodd" clip-rule="evenodd" d="M18.0161 32.8238L22.0261 31.6611L25.4896 37.9938C25.4941 38.0021 25.5059 38.0021 25.5104 37.9938L28.9739 31.6611L32.9839 32.8238C32.9929 32.8264 33.0013 32.818 32.9986 32.8091L31.8356 28.8784L37.9938 25.5104C38.0021 25.5059 38.0021 25.4941 37.9938 25.4896L31.7849 22.0938L32.9986 17.9916C33.0013 17.9826 32.9929 17.9743 32.9839 17.9769L28.8798 19.1669L25.5104 13.0062C25.5059 12.9979 25.4941 12.9979 25.4896 13.0062L22.1202 19.1669L18.0161 17.9769C18.0071 17.9743 17.9988 17.9826 18.0014 17.9916L19.2151 22.0938L13.0062 25.4896C12.9979 25.4941 12.9979 25.5059 13.0062 25.5104L19.1643 28.8784L18.0014 32.8091C17.9988 32.818 18.0071 32.8264 18.0161 32.8238ZM21.1278 25.5432L23.9687 27.0969L25.5224 29.9377C25.5269 29.946 25.5387 29.946 25.5432 29.9377L27.0969 27.0969L29.9377 25.5432C29.9459 25.5387 29.9459 25.5269 29.9377 25.5224L27.0969 23.9687L25.5432 21.1279C25.5387 21.1196 25.5269 21.1196 25.5224 21.1279L23.9687 23.9687L21.1278 25.5224C21.1196 25.5269 21.1196 25.5387 21.1278 25.5432Z" fill="white"/>
</svg>
