<svg width="51" height="51" viewBox="0 0 51 51" fill="none" xmlns="http://www.w3.org/2000/svg">
<circle cx="25.5" cy="25.5" r="25.5" fill="#62B957"/>
<path fill-rule="evenodd" clip-rule="evenodd" d="M17.7121 34.8085C17.623 34.7247 17.5349 34.6392 17.4478 34.5522C12.8507 29.9551 12.8507 22.5017 17.4478 17.9047C22.0449 13.3075 36.693 13 36.693 13C36.693 13 38.6925 29.9551 34.0954 34.5522C30.0126 38.635 23.6768 39.0917 19.0899 35.9224L22.7859 31.3869L28.6942 30.1113L23.8713 29.6291L26.9363 26.5084L30.4252 25.7441L27.6664 24.927L30.4252 19.9502L26.501 24.3518L24.9857 22.2134L25.5191 25.7441L22.7859 28.8253L21.5189 24.927V30.1113L17.7121 34.8085Z" fill="white"/>
</svg>
