<svg width="26" height="26" viewBox="0 0 26 26" fill="none" xmlns="http://www.w3.org/2000/svg">
<g clip-path="url(#clip0_22_1273)">
<path fill-rule="evenodd" clip-rule="evenodd" d="M5.14935 22.3085C5.06026 22.2247 4.97216 22.1392 4.88508 22.0522C0.287982 17.4551 0.287983 10.0017 4.88508 5.40465C9.48215 0.807541 24.1303 0.5 24.1303 0.5C24.1303 0.5 26.1297 17.4551 21.5326 22.0522C17.4498 26.135 11.1141 26.5917 6.52719 23.4224L10.2231 18.8869L16.1314 17.6113L11.3085 17.1291L14.3735 14.0084L17.8625 13.2441L15.1036 12.427L17.8625 7.45017L13.9383 11.8518L12.4229 9.71337L12.9564 13.2441L10.2231 16.3253L8.95616 12.427V17.6113L5.14935 22.3085Z" fill="#62B957"/>
</g>
<defs>
<clipPath id="clip0_22_1273">
<rect width="25" height="25" fill="white" transform="translate(0.5 0.5)"/>
</clipPath>
</defs>
</svg>
