<svg width="51" height="51" viewBox="0 0 51 51" fill="none" xmlns="http://www.w3.org/2000/svg">
<circle cx="25.5" cy="25.5" r="25.5" fill="#FD7D24"/>
<path fill-rule="evenodd" clip-rule="evenodd" d="M30.0751 32.3064C30.384 31.1769 29.7844 28.855 29.7844 28.855C29.7844 28.855 29.3496 30.7465 28.6701 31.4457C28.0904 32.042 27.3802 32.4556 26.3616 32.5643C27.1944 32.1598 27.7671 31.3164 27.7671 30.3416C27.7671 28.9731 26.6386 27.8637 25.2465 27.8637C23.8544 27.8637 22.7258 28.9731 22.7258 30.3416C22.7258 30.7153 22.8101 31.0697 22.9608 31.3875C22.0901 30.6939 21.9532 29.5817 21.9532 29.5817C21.9532 29.5817 20.9809 33.6184 23.6599 35.5172C26.3389 37.416 31.5869 35.7839 31.5869 35.7839C31.5869 35.7839 24.0767 41.0682 18.5115 35.3169C13.7176 30.3625 17.2603 23.84 17.2603 23.84C17.2603 23.84 17.1073 24.4451 17.1073 25.1475C17.1073 25.8499 17.4881 26.3843 17.4881 26.3843C17.4881 26.3843 18.6241 23.9898 19.5082 23.016C20.3449 22.0944 21.3938 21.347 22.2998 20.7014C22.9971 20.2044 23.6098 19.7678 23.9757 19.3585C25.9912 17.1049 24.7554 13 24.7554 13C24.7554 13 27.0274 15.0029 27.6617 17.5897C27.9035 18.5758 27.7479 19.6977 27.6089 20.701C27.3831 22.3297 27.2006 23.6458 28.8317 23.5604C31.4675 23.4223 29.1771 19.3585 29.1771 19.3585C29.1771 19.3585 35.1562 22.5011 34.7095 27.9973C34.2628 33.4935 28.174 34.743 28.174 34.743C28.174 34.743 29.7662 33.4358 30.0751 32.3064Z" fill="white"/>
</svg>
