<svg width="26" height="26" viewBox="0 0 26 26" fill="none" xmlns="http://www.w3.org/2000/svg">
<g clip-path="url(#clip0_22_1264)">
<path fill-rule="evenodd" clip-rule="evenodd" d="M17.7084 19.8064C18.0173 18.6769 17.4177 16.355 17.4177 16.355C17.4177 16.355 16.9829 18.2465 16.3034 18.9457C15.7237 19.542 15.0135 19.9556 13.9949 20.0643C14.8277 19.6598 15.4004 18.8164 15.4004 17.8416C15.4004 16.4731 14.2719 15.3637 12.8798 15.3637C11.4877 15.3637 10.3591 16.4731 10.3591 17.8416C10.3591 18.2153 10.4434 18.5697 10.5941 18.8875C9.7234 18.1939 9.58648 17.0817 9.58648 17.0817C9.58648 17.0817 8.61422 21.1184 11.2932 23.0172C13.9722 24.916 19.2202 23.2839 19.2202 23.2839C19.2202 23.2839 11.71 28.5682 6.14483 22.8169C1.35092 17.8625 4.89362 11.34 4.89362 11.34C4.89362 11.34 4.74062 11.9451 4.74062 12.6475C4.74062 13.3499 5.12144 13.8843 5.12144 13.8843C5.12144 13.8843 6.25743 11.4898 7.14151 10.516C7.97823 9.59444 9.02711 8.84698 9.93307 8.20137C10.6304 7.7044 11.2431 7.26778 11.609 6.85855C13.6245 4.60492 12.3887 0.5 12.3887 0.5C12.3887 0.5 14.6607 2.50293 15.295 5.08974C15.5368 6.07578 15.3812 7.19771 15.2422 8.20098C15.0164 9.82969 14.8339 11.1458 16.465 11.0604C19.1008 10.9223 16.8104 6.85855 16.8104 6.85855C16.8104 6.85855 22.7895 10.0011 22.3428 15.4973C21.8961 20.9935 15.8073 22.243 15.8073 22.243C15.8073 22.243 17.3995 20.9358 17.7084 19.8064Z" fill="#FD7D24"/>
</g>
<defs>
<clipPath id="clip0_22_1264">
<rect width="25" height="25" fill="white" transform="translate(0.5 0.5)"/>
</clipPath>
</defs>
</svg>
