<svg width="50" height="50" viewBox="0 0 50 50" fill="none" xmlns="http://www.w3.org/2000/svg">
<rect width="50" height="50" rx="25" fill="#417D9A"/>
<g clip-path="url(#clip0_53_1255)">
<path fill-rule="evenodd" clip-rule="evenodd" d="M12.5025 25.015C12.4992 25.0093 12.4992 25.0023 12.5025 24.9966L18.7888 14.2561C18.7921 14.2505 18.7981 14.2471 18.8046 14.2471H31.2644C31.2709 14.2471 31.2769 14.2505 31.2802 14.2561L37.4975 24.9967C37.5008 25.0023 37.5008 25.0093 37.4975 25.0149L31.2802 35.7434C31.2769 35.749 31.2709 35.7525 31.2644 35.7525H18.8046C18.7981 35.7525 18.7921 35.7491 18.7888 35.7435L12.5025 25.015ZM30.7919 24.9998C30.7919 28.1974 28.1996 30.7897 25.002 30.7897C21.8043 30.7897 19.2121 28.1974 19.2121 24.9998C19.2121 21.8021 21.8043 19.2099 25.002 19.2099C28.1996 19.2099 30.7919 21.8021 30.7919 24.9998Z" fill="white"/>
</g>
<defs>
<clipPath id="clip0_53_1255">
<rect width="25" height="25" fill="white" transform="translate(12.5 12.5)"/>
</clipPath>
</defs>
</svg>
