<svg width="26" height="26" viewBox="0 0 26 26" fill="none" xmlns="http://www.w3.org/2000/svg">
<g clip-path="url(#clip0_22_1294)">
<path fill-rule="evenodd" clip-rule="evenodd" d="M0.502496 13.015C0.49917 13.0093 0.499168 13.0023 0.502491 12.9966L6.78883 2.25607C6.7921 2.2505 6.79811 2.24707 6.80455 2.24707H19.2644C19.2709 2.24707 19.2769 2.25053 19.2802 2.25615L25.4975 12.9967C25.5008 13.0023 25.5008 13.0093 25.4975 13.0149L19.2802 23.7434C19.2769 23.749 19.2709 23.7525 19.2644 23.7525H6.80455C6.79811 23.7525 6.7921 23.749 6.78883 23.7435L0.502496 13.015ZM18.7919 12.9998C18.7919 16.1974 16.1996 18.7897 13.002 18.7897C9.80431 18.7897 7.21207 16.1974 7.21207 12.9998C7.21207 9.80206 9.80431 7.20987 13.002 7.20987C16.1996 7.20987 18.7919 9.80206 18.7919 12.9998Z" fill="#417D9A"/>
</g>
<defs>
<clipPath id="clip0_22_1294">
<rect width="25" height="25" fill="white" transform="translate(0.5 0.5)"/>
</clipPath>
</defs>
</svg>
