<svg width="51" height="51" viewBox="0 0 51 51" fill="none" xmlns="http://www.w3.org/2000/svg">
<circle cx="25.5" cy="25.5" r="25.5" fill="#EED535"/>
<path fill-rule="evenodd" clip-rule="evenodd" d="M19.7494 14.0286C19.7446 14.0146 19.755 14 19.7698 14H28.5799C28.5894 14 28.5978 14.0062 28.6006 14.0152L32.6472 27.0892C32.6515 27.1031 32.6411 27.1171 32.6266 27.1171H26.7613C26.7542 27.1171 26.749 27.1239 26.751 27.1308L30.1148 38.9724C30.1214 38.9954 30.0913 39.0104 30.0769 38.9913L17.0044 21.6068C16.9937 21.5926 17.0038 21.5723 17.0216 21.5723H22.3448C22.3522 21.5723 22.3574 21.565 22.3549 21.558L19.7494 14.0286Z" fill="white"/>
</svg>
