<svg width="26" height="26" viewBox="0 0 26 26" fill="none" xmlns="http://www.w3.org/2000/svg">
<g clip-path="url(#clip0_22_1255)">
<path fill-rule="evenodd" clip-rule="evenodd" d="M7.9253 0.528595C7.92045 0.514598 7.93089 0.5 7.94569 0.5H16.7558C16.7653 0.5 16.7737 0.506153 16.7765 0.515177L20.8231 13.5892C20.8274 13.6031 20.817 13.6171 20.8025 13.6171H14.9372C14.9301 13.6171 14.9249 13.6239 14.9269 13.6308L18.2908 25.4724C18.2973 25.4954 18.2672 25.5104 18.2528 25.4913L5.18027 8.10682C5.16959 8.09261 5.17972 8.07233 5.19749 8.07233H10.5207C10.5281 8.07233 10.5333 8.06503 10.5308 8.05802L7.9253 0.528595Z" fill="#EED535"/>
</g>
<defs>
<clipPath id="clip0_22_1255">
<rect width="25" height="25" fill="white" transform="translate(0.5 0.5)"/>
</clipPath>
</defs>
</svg>
