<svg width="50" height="50" viewBox="0 0 50 50" fill="none" xmlns="http://www.w3.org/2000/svg">
<rect width="50" height="50" rx="25" fill="#4A90DA"/>
<g clip-path="url(#clip0_53_1258)">
<path fill-rule="evenodd" clip-rule="evenodd" d="M33.1102 29.4204C33.1102 33.8827 29.4792 37.5 25.0002 37.5C20.5211 37.5 16.8901 33.8827 16.8901 29.4204C16.8901 25.0806 24.5615 13.1615 24.9822 12.5111C24.9918 12.4963 25.0086 12.4963 25.0181 12.5111C25.4389 13.1615 33.1102 25.0806 33.1102 29.4204ZM23.6483 34.9097C19.5328 34.0093 20.2371 29.4505 20.2371 29.4505C20.2371 29.4505 21.3608 32.2024 24.088 33.0939C26.815 33.9853 30.1107 32.6779 30.1107 32.6779C30.1107 32.6779 27.7637 35.8102 23.6483 34.9097Z" fill="white"/>
</g>
<defs>
<clipPath id="clip0_53_1258">
<rect width="25" height="25" fill="white" transform="translate(12.5 12.5)"/>
</clipPath>
</defs>
</svg>
