<svg width="26" height="26" viewBox="0 0 26 26" fill="none" xmlns="http://www.w3.org/2000/svg">
<g clip-path="url(#clip0_22_1297)">
<path fill-rule="evenodd" clip-rule="evenodd" d="M21.1101 17.4204C21.1101 21.8827 17.4791 25.5 13 25.5C8.52099 25.5 4.89001 21.8827 4.89001 17.4204C4.89001 13.0806 12.5614 1.16155 12.9821 0.511124C12.9917 0.496292 13.0084 0.496292 13.018 0.511124C13.4387 1.16155 21.1101 13.0806 21.1101 17.4204ZM11.6481 22.9097C7.53271 22.0093 8.23694 17.4505 8.23694 17.4505C8.23694 17.4505 9.36072 20.2024 12.0878 21.0939C14.8149 21.9853 18.1106 20.6779 18.1106 20.6779C18.1106 20.6779 15.7635 23.8102 11.6481 22.9097Z" fill="#4A90DA"/>
</g>
<defs>
<clipPath id="clip0_22_1297">
<rect width="25" height="25" fill="white" transform="translate(0.5 0.5)"/>
</clipPath>
</defs>
</svg>
