<svg width="51" height="51" viewBox="0 0 51 51" fill="none" xmlns="http://www.w3.org/2000/svg">
<circle cx="25.5" cy="25.5" r="25.5" fill="#0F6AC0"/>
<path fill-rule="evenodd" clip-rule="evenodd" d="M26.1437 24.4454C26.3131 24.342 26.4568 24.1255 26.5728 23.8849C28.0984 24.5084 29.1705 25.9819 29.1705 27.7002C29.1705 29.9829 27.2784 31.8334 24.9444 31.8334C23.9863 31.8334 23.1027 31.5216 22.3938 30.996C22.1613 30.8859 21.97 30.7802 21.8135 30.6936C21.5707 30.5594 21.4114 30.4713 21.3117 30.4851C21.0203 30.5253 21.1049 30.7935 21.1818 31.0371C21.234 31.2025 21.2827 31.3567 21.2073 31.4203C21.1285 31.4869 20.8732 31.2435 20.575 30.9591C20.1689 30.5719 19.6832 30.1088 19.4541 30.2479C19.273 30.3579 19.4488 30.6563 19.6641 31.0215L19.68 31.0486C19.7709 31.203 19.8763 31.3603 19.9725 31.5037C20.1679 31.7953 20.3253 32.0302 20.2466 32.07C20.1514 32.118 19.488 31.6703 18.929 31.0486C18.7132 30.8087 18.5042 30.5487 18.31 30.307V30.307C17.8848 29.778 17.5306 29.3373 17.3318 29.3895C17.0926 29.4523 17.2735 29.9457 17.5394 30.4204C17.6637 30.6424 17.81 30.8685 17.9366 31.0643V31.0643C18.1335 31.3687 18.283 31.5997 18.2288 31.6281C18.1556 31.6664 17.512 31.0388 17.0749 30.2479C16.8152 29.7781 16.5972 29.259 16.4207 28.8387C16.2293 28.3829 16.0867 28.0434 15.9928 28.0092C15.6666 27.8905 15.6666 28.5556 15.7975 29.5155C15.8145 29.6408 15.8399 29.7721 15.8712 29.9059C17.14 34.011 21.0375 37 25.6488 37C31.2893 37 35.8617 32.5279 35.8617 27.0113C35.8617 21.7607 31.7197 17.4564 26.457 17.0534C26.4637 16.8061 26.5928 16.3156 26.5928 16.3156C26.5928 16.3156 27.5218 14.0677 27.5709 13.5874C27.5742 13.5555 27.578 13.5209 27.5822 13.484C27.64 12.965 27.7477 12 26.9175 12C26.4742 12 26.268 12.3298 26.0322 12.707V12.707C25.9417 12.8518 25.8468 13.0036 25.7324 13.1464C24.9088 14.175 23.5238 15.4594 22.7385 16.1437C21.0787 17.59 19.4501 18.7787 18.5003 19.472L18.5003 19.472C18.0683 19.7873 17.7768 20.0001 17.6865 20.0881C17.0065 20.751 14.5684 25.1487 14.5684 25.1487C14.5684 25.1487 13.78 26.5597 14.0602 26.8458C14.3405 27.132 15.0163 27.0664 15.0163 27.0664C15.0163 27.0664 24.0955 24.9835 24.9083 24.8193C25.1271 24.775 25.2816 24.7495 25.4002 24.7299C25.7223 24.6768 25.7801 24.6672 26.1437 24.4454ZM19.7244 21.7687C19.237 22.232 18.4288 23.3377 18.4288 23.3377C18.4288 23.3377 19.9309 23.4302 20.7582 22.6438C21.5855 21.8574 21.396 20.5172 21.396 20.5172C21.396 20.5172 20.2117 21.3055 19.7244 21.7687Z" fill="white"/>
</svg>
