<svg width="26" height="26" viewBox="0 0 26 26" fill="none" xmlns="http://www.w3.org/2000/svg">
<g clip-path="url(#clip0_22_1252)">
<path fill-rule="evenodd" clip-rule="evenodd" d="M14.2127 12.9454C14.3822 12.842 14.5259 12.6255 14.6418 12.3849C16.1675 13.0084 17.2396 14.4819 17.2396 16.2002C17.2396 18.4829 15.3475 20.3334 13.0135 20.3334C12.0554 20.3334 11.1718 20.0216 10.4629 19.496C10.2304 19.3859 10.0391 19.2802 9.88257 19.1936C9.63975 19.0594 9.48052 18.9713 9.38081 18.9851C9.08936 19.0253 9.17398 19.2935 9.25088 19.5371C9.30308 19.7025 9.35176 19.8567 9.27642 19.9203C9.19761 19.9869 8.94234 19.7435 8.64404 19.4591C8.23799 19.0719 7.75225 18.6088 7.52319 18.7479C7.34209 18.8579 7.51792 19.1563 7.73316 19.5215L7.74912 19.5486C7.84004 19.703 7.94541 19.8603 8.04155 20.0037C8.23701 20.2953 8.39443 20.5302 8.31567 20.57C8.22046 20.618 7.55708 20.1703 6.99805 19.5486C6.78228 19.3087 6.57329 19.0487 6.37905 18.807V18.807C5.95391 18.278 5.59971 17.8373 5.40088 17.8895C5.16169 17.9523 5.34263 18.4457 5.6085 18.9204C5.73281 19.1424 5.87905 19.3685 6.00566 19.5643V19.5643C6.20259 19.8687 6.35205 20.0997 6.29785 20.1281C6.22471 20.1664 5.5811 19.5388 5.14397 18.7479C4.88432 18.2781 4.6663 17.759 4.4898 17.3387C4.29839 16.8829 4.15581 16.5434 4.06192 16.5092C3.73572 16.3905 3.73572 17.0556 3.86655 18.0155C3.88361 18.1408 3.90903 18.2721 3.94032 18.4059C5.20908 22.511 9.10659 25.5 13.7179 25.5C19.3584 25.5 23.9308 21.0279 23.9308 15.5113C23.9308 10.2607 19.7888 5.9564 14.5261 5.55342C14.5328 5.30607 14.6619 4.81558 14.6619 4.81558C14.6619 4.81558 15.5909 2.56773 15.64 2.0874C15.6433 2.05552 15.6471 2.02087 15.6513 1.98398C15.7091 1.46499 15.8168 0.5 14.9866 0.5C14.5433 0.5 14.3371 0.829816 14.1013 1.20703V1.20703C14.0108 1.35184 13.9159 1.50364 13.8015 1.64644C12.9779 2.67498 11.5929 3.95941 10.8076 4.64371C9.14776 6.09004 7.51924 7.27871 6.56943 7.97197L6.56939 7.97202C6.1374 8.2873 5.84585 8.50015 5.75562 8.58809C5.07564 9.25098 2.63754 13.6487 2.63754 13.6487C2.63754 13.6487 1.84909 15.0597 2.12934 15.3458C2.40959 15.632 3.08541 15.5664 3.08541 15.5664C3.08541 15.5664 12.1646 13.4835 12.9774 13.3193C13.1962 13.275 13.3507 13.2495 13.4693 13.2299C13.7914 13.1768 13.8492 13.1672 14.2127 12.9454ZM7.79346 10.2687C7.3061 10.732 6.49785 11.8377 6.49785 11.8377C6.49785 11.8377 8 11.9302 8.8273 11.1438C9.65464 10.3574 9.46509 9.01724 9.46509 9.01724C9.46509 9.01724 8.28076 9.80552 7.79346 10.2687Z" fill="#0F6AC0"/>
</g>
<defs>
<clipPath id="clip0_22_1252">
<rect width="25" height="25" fill="white" transform="translate(0.5 0.5)"/>
</clipPath>
</defs>
</svg>
