<svg width="26" height="26" viewBox="0 0 26 26" fill="none" xmlns="http://www.w3.org/2000/svg">
<g clip-path="url(#clip0_22_1288)">
<path fill-rule="evenodd" clip-rule="evenodd" d="M22.777 21.2632C22.777 21.2632 19.6243 23.7917 13.3506 22.7454C8.59077 21.9515 6.05211 16.7045 6.05211 13.8842C6.05211 7.19745 11.0012 5.67576 14.3471 5.67576C17.693 5.67576 19.8757 8.93783 19.8757 11.4635C19.8757 13.9892 18.0894 16.1983 15.3094 16.1983C12.5295 16.1983 11.7062 14.2467 11.7062 12.4524C11.7062 10.6581 13.1579 10.026 14.4818 10.026C15.8057 10.026 16.259 11.1563 16.259 12.1277C16.259 13.0992 15.5053 13.4471 14.8766 13.4471C14.2479 13.4471 14.1858 13.1299 13.9452 12.7966C13.7045 12.4633 14.252 11.2016 13.3506 11.2016C12.4491 11.2016 12.2811 12.652 12.2811 12.652C12.2811 12.652 12.6097 15.4518 15.3094 15.4035C18.0092 15.3552 19.2899 13.268 18.9177 11.2016C18.5455 9.13521 16.5401 6.93942 13.0204 7.38312C9.50083 7.82682 8.06381 11.3831 8.69722 15.1835C9.33064 18.9839 13.8835 21.1859 17.4633 20.3937C21.043 19.6015 24.6084 17.0099 24.6084 10.4392C24.6084 3.86848 18.9177 -0.0811269 12.1321 0.56979C5.34642 1.2207 1.1342 7.15316 1.40382 14.2811C1.67344 21.4091 8.43704 25.2912 14.1564 25.4913C19.8757 25.6914 23.3819 22.3806 23.3819 22.3806C23.3819 22.3806 24.1704 21.6775 23.8612 21.1284C23.5521 20.5793 22.777 21.2632 22.777 21.2632Z" fill="#EA5D60"/>
</g>
<defs>
<clipPath id="clip0_22_1288">
<rect width="25" height="25" fill="white" transform="translate(0.5 0.5)"/>
</clipPath>
</defs>
</svg>
