<svg width="51" height="51" viewBox="0 0 51 51" fill="none" xmlns="http://www.w3.org/2000/svg">
<circle cx="25.5" cy="25.5" r="25.5" fill="#58575F"/>
<path fill-rule="evenodd" clip-rule="evenodd" d="M24.2169 35.1118C24.6919 35.1845 25.1783 35.2222 25.6736 35.2222C30.9472 35.2222 35.2222 30.9472 35.2222 25.6736C35.2222 20.4 30.9472 16.125 25.6736 16.125C25.3198 16.125 24.9704 16.1442 24.6266 16.1817C27.2426 18.1636 28.9722 21.5968 28.9722 25.5C28.9722 29.6035 27.0605 33.1875 24.2169 35.1118ZM25.5 38C32.4035 38 38 32.4036 38 25.5C38 18.5964 32.4035 13 25.5 13C18.5964 13 13 18.5964 13 25.5C13 32.4036 18.5964 38 25.5 38Z" fill="white"/>
</svg>
