<svg width="25" height="25" viewBox="0 0 25 25" fill="none" xmlns="http://www.w3.org/2000/svg">
<path d="M21.2165 11.2232H6.87986L13.1433 4.95974C13.6439 4.45917 13.6439 3.63774 13.1433 3.13717C13.0246 3.01819 12.8835 2.92379 12.7283 2.85938C12.573 2.79497 12.4065 2.76182 12.2385 2.76182C12.0704 2.76182 11.9039 2.79497 11.7486 2.85938C11.5934 2.92379 11.4523 3.01819 11.3336 3.13717L2.87535 11.5954C2.75637 11.7141 2.66197 11.8552 2.59756 12.0105C2.53315 12.1657 2.5 12.3322 2.5 12.5003C2.5 12.6684 2.53315 12.8348 2.59756 12.9901C2.66197 13.1454 2.75637 13.2864 2.87535 13.4051L11.3336 21.8634C11.4524 21.9822 11.5935 22.0765 11.7487 22.1408C11.904 22.2051 12.0704 22.2382 12.2385 22.2382C12.4065 22.2382 12.5729 22.2051 12.7282 22.1408C12.8834 22.0765 13.0245 21.9822 13.1433 21.8634C13.2621 21.7445 13.3564 21.6035 13.4207 21.4482C13.485 21.293 13.5181 21.1266 13.5181 20.9585C13.5181 20.7905 13.485 20.6241 13.4207 20.4688C13.3564 20.3135 13.2621 20.1725 13.1433 20.0536L6.87986 13.7902H21.2165C21.9224 13.7902 22.5 13.2126 22.5 12.5067C22.5 11.8008 21.9224 11.2232 21.2165 11.2232Z" fill="white"/>
</svg>
