<svg width="414" height="78" viewBox="0 0 414 78" fill="none" xmlns="http://www.w3.org/2000/svg">
<mask id="path-1-outside-1_4_1765" maskUnits="userSpaceOnUse" x="-83" y="0" width="584" height="78" fill="black">
<rect fill="white" x="-83" width="584" height="78"/>
<path d="M-48.8223 74H-80.0234V3.54102H-49.3594C-42.7513 3.54102 -37.5104 5.11979 -33.6367 8.27734C-29.763 11.4349 -27.8262 15.7155 -27.8262 21.1191C-27.8262 24.9603 -29.0957 28.3294 -31.6348 31.2266C-34.1413 34.1237 -37.2826 35.849 -41.0586 36.4023V36.793C-36.2409 37.151 -32.2695 38.9251 -29.1445 42.1152C-26.0195 45.3053 -24.457 49.2116 -24.457 53.834C-24.457 60.0514 -26.638 64.9668 -31 68.5801C-35.362 72.1934 -41.3027 74 -48.8223 74ZM-65.2773 14.5273V32.8379H-54.6816C-50.7428 32.8379 -47.6992 32.0241 -45.5508 30.3965C-43.4023 28.7363 -42.3281 26.4089 -42.3281 23.4141C-42.3281 20.582 -43.2721 18.401 -45.1602 16.8711C-47.0482 15.3086 -49.7174 14.5273 -53.168 14.5273H-65.2773ZM-65.2773 63.0137H-52.582C-48.3177 63.0137 -45.0788 62.1348 -42.8652 60.377C-40.6191 58.5866 -39.4961 56.015 -39.4961 52.6621C-39.4961 49.3743 -40.6517 46.8678 -42.9629 45.1426C-45.2415 43.4173 -48.5618 42.5547 -52.9238 42.5547H-65.2773V63.0137ZM-1.3125 3.54102V47.6328C-1.3125 52.2227 -0.0266927 55.8685 2.54492 58.5703C5.14909 61.2396 8.79492 62.5742 13.4824 62.5742C18.1374 62.5742 21.7507 61.2396 24.3223 58.5703C26.9264 55.8685 28.2285 52.2227 28.2285 47.6328V3.54102H42.9746V49.0977C42.9746 56.9102 40.2891 63.2253 34.918 68.043C29.5794 72.8281 22.4342 75.2207 13.4824 75.2207C4.49805 75.2207 -2.67969 72.8281 -8.05078 68.043C-13.3893 63.2253 -16.0586 56.9102 -16.0586 49.0977V3.54102H-1.3125ZM100.299 61.793V74H54.7422V3.54102H69.4883V61.793H100.299ZM140.24 74H109.039V3.54102H139.703C146.311 3.54102 151.552 5.11979 155.426 8.27734C159.299 11.4349 161.236 15.7155 161.236 21.1191C161.236 24.9603 159.967 28.3294 157.428 31.2266C154.921 34.1237 151.78 35.849 148.004 36.4023V36.793C152.822 37.151 156.793 38.9251 159.918 42.1152C163.043 45.3053 164.605 49.2116 164.605 53.834C164.605 60.0514 162.424 64.9668 158.062 68.5801C153.701 72.1934 147.76 74 140.24 74ZM123.785 14.5273V32.8379H134.381C138.32 32.8379 141.363 32.0241 143.512 30.3965C145.66 28.7363 146.734 26.4089 146.734 23.4141C146.734 20.582 145.79 18.401 143.902 16.8711C142.014 15.3086 139.345 14.5273 135.895 14.5273H123.785ZM123.785 63.0137H136.48C140.745 63.0137 143.984 62.1348 146.197 60.377C148.443 58.5866 149.566 56.015 149.566 52.6621C149.566 49.3743 148.411 46.8678 146.1 45.1426C143.821 43.4173 140.501 42.5547 136.139 42.5547H123.785V63.0137ZM219.146 74L213.775 56.9102H189.02L183.648 74H168.512L192.975 3.54102H210.309L234.82 74H219.146ZM201.227 17.0176L192.193 45.875H210.602L201.568 17.0176H201.227ZM237.945 53.9316H252.154C252.48 56.7962 253.993 59.1237 256.695 60.9141C259.43 62.6719 262.766 63.5508 266.705 63.5508C270.611 63.5508 273.785 62.7207 276.227 61.0605C278.701 59.3678 279.938 57.2194 279.938 54.6152C279.938 52.3366 279.026 50.4974 277.203 49.0977C275.38 47.6979 272.337 46.526 268.072 45.582L258.893 43.5801C245.969 40.8132 239.508 34.2539 239.508 23.9023C239.508 17.457 242.014 12.2487 247.027 8.27734C252.073 4.30599 258.551 2.32031 266.461 2.32031C274.599 2.32031 281.093 4.25716 285.943 8.13086C290.794 11.972 293.284 17.099 293.414 23.5117H279.596C279.368 20.5495 278.049 18.222 275.641 16.5293C273.264 14.804 270.221 13.9414 266.51 13.9414C262.864 13.9414 259.918 14.7389 257.672 16.334C255.458 17.929 254.352 20.0286 254.352 22.6328C254.352 24.7812 255.247 26.5228 257.037 27.8574C258.86 29.1921 261.806 30.3314 265.875 31.2754L274.42 33.082C281.484 34.5794 286.627 36.9232 289.85 40.1133C293.072 43.2708 294.684 47.5352 294.684 52.9062C294.684 59.7422 292.112 65.1784 286.969 69.2148C281.826 73.2188 274.876 75.2207 266.119 75.2207C257.623 75.2207 250.852 73.3327 245.807 69.5566C240.794 65.748 238.173 60.5397 237.945 53.9316ZM348.443 74L343.072 56.9102H318.316L312.945 74H297.809L322.271 3.54102H339.605L364.117 74H348.443ZM330.523 17.0176L321.49 45.875H339.898L330.865 17.0176H330.523ZM384.625 3.54102V47.6328C384.625 52.2227 385.911 55.8685 388.482 58.5703C391.087 61.2396 394.732 62.5742 399.42 62.5742C404.075 62.5742 407.688 61.2396 410.26 58.5703C412.864 55.8685 414.166 52.2227 414.166 47.6328V3.54102H428.912V49.0977C428.912 56.9102 426.227 63.2253 420.855 68.043C415.517 72.8281 408.372 75.2207 399.42 75.2207C390.436 75.2207 383.258 72.8281 377.887 68.043C372.548 63.2253 369.879 56.9102 369.879 49.0977V3.54102H384.625ZM455.426 15.0645V37.5254H468.121C471.832 37.5254 474.713 36.5326 476.764 34.5469C478.847 32.5612 479.889 29.8105 479.889 26.2949C479.889 22.877 478.814 20.1589 476.666 18.1406C474.518 16.0898 471.62 15.0645 467.975 15.0645H455.426ZM455.426 48.2188V74H440.68V3.54102H469.537C477.577 3.54102 483.827 5.54297 488.287 9.54688C492.779 13.5182 495.025 19.0033 495.025 26.002C495.025 30.5918 493.886 34.6934 491.607 38.3066C489.361 41.8874 486.236 44.459 482.232 46.0215L497.076 74H480.377L467.242 48.2188H455.426Z"/>
</mask>
<path d="M-80.0234 74H-82.0234V76H-80.0234V74ZM-80.0234 3.54102V1.54102H-82.0234V3.54102H-80.0234ZM-33.6367 8.27734L-34.9004 9.82758L-33.6367 8.27734ZM-31.6348 31.2266L-33.1389 29.9083L-33.1473 29.918L-31.6348 31.2266ZM-41.0586 36.4023L-41.3486 34.4235L-43.0586 34.6741V36.4023H-41.0586ZM-41.0586 36.793H-43.0586V38.6498L-41.2068 38.7875L-41.0586 36.793ZM-29.1445 42.1152L-30.5732 43.5148L-29.1445 42.1152ZM-65.2773 14.5273V12.5273H-67.2773V14.5273H-65.2773ZM-65.2773 32.8379H-67.2773V34.8379H-65.2773V32.8379ZM-45.5508 30.3965L-44.3431 31.9907L-44.3354 31.9849L-44.3279 31.9791L-45.5508 30.3965ZM-45.1602 16.8711L-46.4353 18.4119L-46.4273 18.4185L-46.4193 18.425L-45.1602 16.8711ZM-65.2773 63.0137H-67.2773V65.0137H-65.2773V63.0137ZM-42.8652 60.377L-41.6215 61.9432L-41.6186 61.9409L-42.8652 60.377ZM-42.9629 45.1426L-44.1702 46.7371L-44.1593 46.7453L-42.9629 45.1426ZM-65.2773 42.5547V40.5547H-67.2773V42.5547H-65.2773ZM-48.8223 72H-80.0234V76H-48.8223V72ZM-78.0234 74V3.54102H-82.0234V74H-78.0234ZM-80.0234 5.54102H-49.3594V1.54102H-80.0234V5.54102ZM-49.3594 5.54102C-43.0624 5.54102 -38.3164 7.04304 -34.9004 9.82758L-32.3731 6.72711C-36.7044 3.19654 -42.4402 1.54102 -49.3594 1.54102V5.54102ZM-34.9004 9.82758C-31.5342 12.5714 -29.8262 16.2608 -29.8262 21.1191H-25.8262C-25.8262 15.1702 -27.9918 10.2984 -32.3731 6.72711L-34.9004 9.82758ZM-29.8262 21.1191C-29.8262 24.4737 -30.9184 27.3748 -33.1389 29.9084L-30.1307 32.5448C-27.273 29.2841 -25.8262 25.4468 -25.8262 21.1191H-29.8262ZM-33.1473 29.918C-35.3412 32.4538 -38.0493 33.94 -41.3486 34.4235L-40.7686 38.3812C-36.5159 37.758 -32.9414 35.7936 -30.1223 32.5351L-33.1473 29.918ZM-43.0586 36.4023V36.793H-39.0586V36.4023H-43.0586ZM-41.2068 38.7875C-36.8311 39.1127 -33.329 40.7017 -30.5732 43.5148L-27.7158 40.7157C-31.2101 37.1486 -35.6506 35.1894 -40.9104 34.7985L-41.2068 38.7875ZM-30.5732 43.5148C-27.8285 46.3167 -26.457 49.7144 -26.457 53.834H-22.457C-22.457 48.7087 -24.2106 44.294 -27.7158 40.7157L-30.5732 43.5148ZM-26.457 53.834C-26.457 59.5218 -28.4211 63.8467 -32.2758 67.0399L-29.7242 70.1203C-24.855 66.0869 -22.457 60.581 -22.457 53.834H-26.457ZM-32.2758 67.0399C-36.1763 70.2708 -41.6149 72 -48.8223 72V76C-40.9906 76 -34.5477 74.1159 -29.7242 70.1203L-32.2758 67.0399ZM-67.2773 14.5273V32.8379H-63.2773V14.5273H-67.2773ZM-65.2773 34.8379H-54.6816V30.8379H-65.2773V34.8379ZM-54.6816 34.8379C-50.5002 34.8379 -46.9668 33.9784 -44.3431 31.9907L-46.7585 28.8023C-48.4316 30.0698 -50.9855 30.8379 -54.6816 30.8379V34.8379ZM-44.3279 31.9791C-41.6342 29.8976 -40.3281 26.9551 -40.3281 23.4141H-44.3281C-44.3281 25.8626 -45.1705 27.5751 -46.7737 28.8139L-44.3279 31.9791ZM-40.3281 23.4141C-40.3281 20.0905 -41.464 17.292 -43.901 15.3172L-46.4193 18.425C-45.0803 19.5101 -44.3281 21.0736 -44.3281 23.4141H-40.3281ZM-43.885 15.3303C-46.2534 13.3703 -49.4391 12.5273 -53.168 12.5273V16.5273C-49.9958 16.5273 -47.8429 17.2469 -46.4353 18.4119L-43.885 15.3303ZM-53.168 12.5273H-65.2773V16.5273H-53.168V12.5273ZM-65.2773 65.0137H-52.582V61.0137H-65.2773V65.0137ZM-52.582 65.0137C-48.0854 65.0137 -44.3289 64.0932 -41.6215 61.9432L-44.109 58.8107C-45.8286 60.1763 -48.55 61.0137 -52.582 61.0137V65.0137ZM-41.6186 61.9409C-38.8138 59.7051 -37.4961 56.5096 -37.4961 52.6621H-41.4961C-41.4961 55.5204 -42.4245 57.468 -44.1119 58.813L-41.6186 61.9409ZM-37.4961 52.6621C-37.4961 48.8442 -38.8738 45.6992 -41.7665 43.5399L-44.1593 46.7453C-42.4296 48.0364 -41.4961 49.9045 -41.4961 52.6621H-37.4961ZM-41.7556 43.5481C-44.522 41.4535 -48.3427 40.5547 -52.9238 40.5547V44.5547C-48.781 44.5547 -45.9611 45.3811 -44.1702 46.7371L-41.7556 43.5481ZM-52.9238 40.5547H-65.2773V44.5547H-52.9238V40.5547ZM-67.2773 42.5547V63.0137H-63.2773V42.5547H-67.2773ZM-1.3125 3.54102H0.6875V1.54102H-1.3125V3.54102ZM2.54492 58.5703L1.09623 59.9492L1.10474 59.9581L1.11336 59.967L2.54492 58.5703ZM24.3223 58.5703L22.8823 57.1824L22.882 57.1827L24.3223 58.5703ZM28.2285 3.54102V1.54102H26.2285V3.54102H28.2285ZM42.9746 3.54102H44.9746V1.54102H42.9746V3.54102ZM34.918 68.043L36.2529 69.5323L36.2534 69.5318L34.918 68.043ZM-8.05078 68.043L-9.39074 69.5278L-9.3812 69.5363L-8.05078 68.043ZM-16.0586 3.54102V1.54102H-18.0586V3.54102H-16.0586ZM-3.3125 3.54102V47.6328H0.6875V3.54102H-3.3125ZM-3.3125 47.6328C-3.3125 52.6113 -1.90682 56.7941 1.09623 59.9492L3.99361 57.1914C1.85344 54.9429 0.6875 51.834 0.6875 47.6328H-3.3125ZM1.11336 59.967C4.18527 63.1157 8.40253 64.5742 13.4824 64.5742V60.5742C9.18731 60.5742 6.11291 59.3635 3.97649 57.1737L1.11336 59.967ZM13.4824 64.5742C18.5332 64.5742 22.7226 63.1133 25.7626 59.9579L22.882 57.1827C20.7787 59.3658 17.7415 60.5742 13.4824 60.5742V64.5742ZM25.7623 59.9583C28.8024 56.8041 30.2285 52.6182 30.2285 47.6328H26.2285C26.2285 51.8272 25.0505 54.9328 22.8823 57.1824L25.7623 59.9583ZM30.2285 47.6328V3.54102H26.2285V47.6328H30.2285ZM28.2285 5.54102H42.9746V1.54102H28.2285V5.54102ZM40.9746 3.54102V49.0977H44.9746V3.54102H40.9746ZM40.9746 49.0977C40.9746 56.3948 38.4929 62.1497 33.5825 66.5541L36.2534 69.5318C42.0852 64.3008 44.9746 57.4255 44.9746 49.0977H40.9746ZM33.5831 66.5537C28.6963 70.9339 22.0689 73.2207 13.4824 73.2207V77.2207C22.7996 77.2207 30.4626 74.7224 36.2529 69.5323L33.5831 66.5537ZM13.4824 73.2207C4.86181 73.2207 -1.80037 70.9329 -6.72037 66.5497L-9.3812 69.5363C-3.55901 74.7233 4.13428 77.2207 13.4824 77.2207V73.2207ZM-6.71085 66.5582C-11.5901 62.155 -14.0586 56.399 -14.0586 49.0977H-18.0586C-18.0586 57.4213 -15.1885 64.2956 -9.39071 69.5278L-6.71085 66.5582ZM-14.0586 49.0977V3.54102H-18.0586V49.0977H-14.0586ZM-16.0586 5.54102H-1.3125V1.54102H-16.0586V5.54102ZM100.299 61.793H102.299V59.793H100.299V61.793ZM100.299 74V76H102.299V74H100.299ZM54.7422 74H52.7422V76H54.7422V74ZM54.7422 3.54102V1.54102H52.7422V3.54102H54.7422ZM69.4883 3.54102H71.4883V1.54102H69.4883V3.54102ZM69.4883 61.793H67.4883V63.793H69.4883V61.793ZM98.2988 61.793V74H102.299V61.793H98.2988ZM100.299 72H54.7422V76H100.299V72ZM56.7422 74V3.54102H52.7422V74H56.7422ZM54.7422 5.54102H69.4883V1.54102H54.7422V5.54102ZM67.4883 3.54102V61.793H71.4883V3.54102H67.4883ZM69.4883 63.793H100.299V59.793H69.4883V63.793ZM109.039 74H107.039V76H109.039V74ZM109.039 3.54102V1.54102H107.039V3.54102H109.039ZM155.426 8.27734L154.162 9.82758L155.426 8.27734ZM157.428 31.2266L155.924 29.9083L155.915 29.918L157.428 31.2266ZM148.004 36.4023L147.714 34.4235L146.004 34.6741V36.4023H148.004ZM148.004 36.793H146.004V38.6498L147.856 38.7875L148.004 36.793ZM159.918 42.1152L158.489 43.5148L159.918 42.1152ZM123.785 14.5273V12.5273H121.785V14.5273H123.785ZM123.785 32.8379H121.785V34.8379H123.785V32.8379ZM143.512 30.3965L144.719 31.9907L144.727 31.9849L144.735 31.9791L143.512 30.3965ZM143.902 16.8711L142.627 18.4119L142.635 18.4185L142.643 18.425L143.902 16.8711ZM123.785 63.0137H121.785V65.0137H123.785V63.0137ZM146.197 60.377L147.441 61.9432L147.444 61.9409L146.197 60.377ZM146.1 45.1426L144.892 46.7371L144.903 46.7453L146.1 45.1426ZM123.785 42.5547V40.5547H121.785V42.5547H123.785ZM140.24 72H109.039V76H140.24V72ZM111.039 74V3.54102H107.039V74H111.039ZM109.039 5.54102H139.703V1.54102H109.039V5.54102ZM139.703 5.54102C146 5.54102 150.746 7.04304 154.162 9.82758L156.689 6.72711C152.358 3.19654 146.622 1.54102 139.703 1.54102V5.54102ZM154.162 9.82758C157.528 12.5714 159.236 16.2608 159.236 21.1191H163.236C163.236 15.1702 161.071 10.2984 156.689 6.72711L154.162 9.82758ZM159.236 21.1191C159.236 24.4737 158.144 27.3748 155.924 29.9084L158.932 32.5448C161.79 29.2841 163.236 25.4468 163.236 21.1191H159.236ZM155.915 29.918C153.721 32.4538 151.013 33.94 147.714 34.4235L148.294 38.3812C152.547 37.758 156.121 35.7936 158.94 32.5351L155.915 29.918ZM146.004 36.4023V36.793H150.004V36.4023H146.004ZM147.856 38.7875C152.231 39.1127 155.734 40.7017 158.489 43.5148L161.347 40.7157C157.852 37.1486 153.412 35.1894 148.152 34.7985L147.856 38.7875ZM158.489 43.5148C161.234 46.3167 162.605 49.7144 162.605 53.834H166.605C166.605 48.7087 164.852 44.294 161.347 40.7157L158.489 43.5148ZM162.605 53.834C162.605 59.5218 160.641 63.8467 156.787 67.0399L159.338 70.1203C164.208 66.0869 166.605 60.581 166.605 53.834H162.605ZM156.787 67.0399C152.886 70.2708 147.448 72 140.24 72V76C148.072 76 154.515 74.1159 159.338 70.1203L156.787 67.0399ZM121.785 14.5273V32.8379H125.785V14.5273H121.785ZM123.785 34.8379H134.381V30.8379H123.785V34.8379ZM134.381 34.8379C138.562 34.8379 142.096 33.9784 144.719 31.9907L142.304 28.8023C140.631 30.0698 138.077 30.8379 134.381 30.8379V34.8379ZM144.735 31.9791C147.428 29.8976 148.734 26.9551 148.734 23.4141H144.734C144.734 25.8626 143.892 27.5751 142.289 28.8139L144.735 31.9791ZM148.734 23.4141C148.734 20.0905 147.598 17.292 145.162 15.3172L142.643 18.425C143.982 19.5101 144.734 21.0736 144.734 23.4141H148.734ZM145.177 15.3303C142.809 13.3703 139.623 12.5273 135.895 12.5273V16.5273C139.067 16.5273 141.22 17.2469 142.627 18.4119L145.177 15.3303ZM135.895 12.5273H123.785V16.5273H135.895V12.5273ZM123.785 65.0137H136.48V61.0137H123.785V65.0137ZM136.48 65.0137C140.977 65.0137 144.734 64.0932 147.441 61.9432L144.954 58.8107C143.234 60.1763 140.512 61.0137 136.48 61.0137V65.0137ZM147.444 61.9409C150.249 59.7051 151.566 56.5096 151.566 52.6621H147.566C147.566 55.5204 146.638 57.468 144.951 58.813L147.444 61.9409ZM151.566 52.6621C151.566 48.8442 150.189 45.6992 147.296 43.5399L144.903 46.7453C146.633 48.0364 147.566 49.9045 147.566 52.6621H151.566ZM147.307 43.5481C144.541 41.4535 140.72 40.5547 136.139 40.5547V44.5547C140.282 44.5547 143.101 45.3811 144.892 46.7371L147.307 43.5481ZM136.139 40.5547H123.785V44.5547H136.139V40.5547ZM121.785 42.5547V63.0137H125.785V42.5547H121.785ZM219.146 74L217.238 74.5997L217.679 76H219.146V74ZM213.775 56.9102L215.683 56.3105L215.243 54.9102H213.775V56.9102ZM189.02 56.9102V54.9102H187.552L187.112 56.3105L189.02 56.9102ZM183.648 74V76H185.116L185.556 74.5997L183.648 74ZM168.512 74L166.622 73.344L165.7 76H168.512V74ZM192.975 3.54102V1.54102H191.552L191.085 2.88504L192.975 3.54102ZM210.309 3.54102L212.198 2.88387L211.73 1.54102H210.309V3.54102ZM234.82 74V76H237.634L236.709 73.3429L234.82 74ZM201.227 17.0176V15.0176H199.757L199.318 16.4201L201.227 17.0176ZM192.193 45.875L190.285 45.2775L189.472 47.875H192.193V45.875ZM210.602 45.875V47.875H213.323L212.51 45.2775L210.602 45.875ZM201.568 17.0176L203.477 16.4201L203.038 15.0176H201.568V17.0176ZM221.054 73.4003L215.683 56.3105L211.867 57.5098L217.238 74.5997L221.054 73.4003ZM213.775 54.9102H189.02V58.9102H213.775V54.9102ZM187.112 56.3105L181.74 73.4003L185.556 74.5997L190.928 57.5098L187.112 56.3105ZM183.648 72H168.512V76H183.648V72ZM170.401 74.656L194.864 4.19699L191.085 2.88504L166.622 73.344L170.401 74.656ZM192.975 5.54102H210.309V1.54102H192.975V5.54102ZM208.42 4.19816L232.931 74.6571L236.709 73.3429L212.198 2.88387L208.42 4.19816ZM234.82 72H219.146V76H234.82V72ZM199.318 16.4201L190.285 45.2775L194.102 46.4725L203.135 17.615L199.318 16.4201ZM192.193 47.875H210.602V43.875H192.193V47.875ZM212.51 45.2775L203.477 16.4201L199.66 17.615L208.693 46.4725L212.51 45.2775ZM201.568 15.0176H201.227V19.0176H201.568V15.0176ZM237.945 53.9316V51.9316H235.875L235.947 54.0006L237.945 53.9316ZM252.154 53.9316L254.142 53.7058L253.94 51.9316H252.154V53.9316ZM256.695 60.9141L255.591 62.5812L255.602 62.5889L255.614 62.5964L256.695 60.9141ZM276.227 61.0605L277.351 62.7144L277.356 62.7112L276.227 61.0605ZM277.203 49.0977L278.421 47.5114L277.203 49.0977ZM268.072 45.582L268.505 43.6293L268.498 43.628L268.072 45.582ZM258.893 43.5801L259.319 41.626L259.311 41.6244L258.893 43.5801ZM247.027 8.27734L245.79 6.70576L245.785 6.70967L247.027 8.27734ZM285.943 8.13086L284.695 9.69363L284.702 9.69874L285.943 8.13086ZM293.414 23.5117V25.5117H295.455L295.414 23.4711L293.414 23.5117ZM279.596 23.5117L277.602 23.6651L277.744 25.5117H279.596V23.5117ZM275.641 16.5293L274.466 18.1477L274.478 18.1568L274.491 18.1657L275.641 16.5293ZM257.672 16.334L256.514 14.7033L256.503 14.7114L257.672 16.334ZM257.037 27.8574L255.842 29.4609L255.849 29.4661L255.856 29.4711L257.037 27.8574ZM265.875 31.2754L265.423 33.2236L265.442 33.2281L265.461 33.2321L265.875 31.2754ZM274.42 33.082L274.835 31.1255L274.834 31.1253L274.42 33.082ZM289.85 40.1133L288.443 41.5347L288.45 41.5419L289.85 40.1133ZM286.969 69.2148L288.197 70.793L288.204 70.7882L286.969 69.2148ZM245.807 69.5566L244.597 71.1492L244.603 71.1535L244.608 71.1579L245.807 69.5566ZM237.945 55.9316H252.154V51.9316H237.945V55.9316ZM250.167 54.1575C250.568 57.6866 252.465 60.51 255.591 62.5812L257.8 59.2469C255.522 57.7374 254.392 55.9058 254.142 53.7058L250.167 54.1575ZM255.614 62.5964C258.733 64.6018 262.465 65.5508 266.705 65.5508V61.5508C263.068 61.5508 260.126 60.7419 257.777 59.2317L255.614 62.5964ZM266.705 65.5508C270.885 65.5508 274.486 64.6625 277.351 62.7144L275.102 59.4067C273.084 60.7789 270.338 61.5508 266.705 61.5508V65.5508ZM277.356 62.7112C280.279 60.7109 281.938 57.9873 281.938 54.6152H277.938C277.938 56.4515 277.122 58.0248 275.097 59.4099L277.356 62.7112ZM281.938 54.6152C281.938 51.7088 280.732 49.2858 278.421 47.5114L275.985 50.684C277.32 51.709 277.938 52.9644 277.938 54.6152H281.938ZM278.421 47.5114C276.24 45.8368 272.843 44.5896 268.505 43.6293L267.64 47.5348C271.831 48.4624 274.52 49.559 275.985 50.684L278.421 47.5114ZM268.498 43.628L259.319 41.626L258.466 45.5341L267.646 47.5361L268.498 43.628ZM259.311 41.6244C253.073 40.2888 248.64 38.0866 245.779 35.1819C242.964 32.3242 241.508 28.624 241.508 23.9023H237.508C237.508 29.5323 239.283 34.2875 242.929 37.989C246.529 41.6436 251.789 44.1044 258.474 45.5358L259.311 41.6244ZM241.508 23.9023C241.508 18.0624 243.739 13.4336 248.269 9.84502L245.785 6.70967C240.289 11.0638 237.508 16.8517 237.508 23.9023H241.508ZM248.264 9.84892C252.882 6.21461 258.893 4.32031 266.461 4.32031V0.320312C258.209 0.320312 251.264 2.39737 245.79 6.70576L248.264 9.84892ZM266.461 4.32031C274.287 4.32031 280.296 6.18044 284.695 9.69362L287.191 6.5681C281.89 2.33388 274.911 0.320312 266.461 0.320312V4.32031ZM284.702 9.69874C289.065 13.154 291.296 17.711 291.414 23.5523L295.414 23.4711C295.272 16.4869 292.523 10.79 287.185 6.56298L284.702 9.69874ZM293.414 21.5117H279.596V25.5117H293.414V21.5117ZM281.59 23.3583C281.317 19.8068 279.693 16.9327 276.791 14.8929L274.491 18.1657C276.406 19.5113 277.419 21.2922 277.602 23.6651L281.59 23.3583ZM276.816 14.9109C274.017 12.879 270.531 11.9414 266.51 11.9414V15.9414C269.911 15.9414 272.512 16.7291 274.466 18.1477L276.816 14.9109ZM266.51 11.9414C262.582 11.9414 259.192 12.8011 256.514 14.7033L258.83 17.9646C260.643 16.6767 263.146 15.9414 266.51 15.9414V11.9414ZM256.503 14.7114C253.797 16.6612 252.352 19.3504 252.352 22.6328H256.352C256.352 20.7069 257.12 19.1969 258.841 17.9566L256.503 14.7114ZM252.352 22.6328C252.352 25.4415 253.568 27.7663 255.842 29.4609L258.232 26.2539C256.925 25.2793 256.352 24.121 256.352 22.6328H252.352ZM255.856 29.4711C258.01 31.0488 261.276 32.2616 265.423 33.2236L266.327 29.3271C262.336 28.4012 259.71 27.3353 258.219 26.2437L255.856 29.4711ZM265.461 33.2321L274.006 35.0388L274.834 31.1253L266.289 29.3186L265.461 33.2321ZM274.005 35.0386C280.897 36.4994 285.61 38.7304 288.443 41.5347L291.257 38.6919C287.644 35.116 282.071 32.6594 274.835 31.1255L274.005 35.0386ZM288.45 41.5419C291.216 44.2525 292.684 47.9625 292.684 52.9062H296.684C296.684 47.1079 294.928 42.2891 291.249 38.6847L288.45 41.5419ZM292.684 52.9062C292.684 59.1606 290.369 64.0038 285.734 67.6415L288.204 70.7882C293.855 66.353 296.684 60.3238 296.684 52.9062H292.684ZM285.74 67.6367C281.052 71.2865 274.583 73.2207 266.119 73.2207V77.2207C275.169 77.2207 282.599 75.151 288.197 70.793L285.74 67.6367ZM266.119 73.2207C257.906 73.2207 251.602 71.3958 247.005 67.9554L244.608 71.1579C250.102 75.2696 257.34 77.2207 266.119 77.2207V73.2207ZM247.017 67.9641C242.509 64.5396 240.152 59.9049 239.944 53.8627L235.947 54.0006C236.194 61.1745 239.078 66.9565 244.597 71.1492L247.017 67.9641ZM348.443 74L346.535 74.5997L346.975 76H348.443V74ZM343.072 56.9102L344.98 56.3105L344.54 54.9102H343.072V56.9102ZM318.316 56.9102V54.9102H316.849L316.408 56.3105L318.316 56.9102ZM312.945 74V76H314.413L314.853 74.5997L312.945 74ZM297.809 74L295.919 73.344L294.997 76H297.809V74ZM322.271 3.54102V1.54102H320.849L320.382 2.88504L322.271 3.54102ZM339.605 3.54102L341.494 2.88387L341.027 1.54102H339.605V3.54102ZM364.117 74V76H366.931L366.006 73.3429L364.117 74ZM330.523 17.0176V15.0176H329.054L328.615 16.4201L330.523 17.0176ZM321.49 45.875L319.582 45.2775L318.768 47.875H321.49V45.875ZM339.898 45.875V47.875H342.62L341.807 45.2775L339.898 45.875ZM330.865 17.0176L332.774 16.4201L332.335 15.0176H330.865V17.0176ZM350.351 73.4003L344.98 56.3105L341.164 57.5098L346.535 74.5997L350.351 73.4003ZM343.072 54.9102H318.316V58.9102H343.072V54.9102ZM316.408 56.3105L311.037 73.4003L314.853 74.5997L320.224 57.5098L316.408 56.3105ZM312.945 72H297.809V76H312.945V72ZM299.698 74.656L324.161 4.19699L320.382 2.88504L295.919 73.344L299.698 74.656ZM322.271 5.54102H339.605V1.54102H322.271V5.54102ZM337.717 4.19816L362.228 74.6571L366.006 73.3429L341.494 2.88387L337.717 4.19816ZM364.117 72H348.443V76H364.117V72ZM328.615 16.4201L319.582 45.2775L323.399 46.4725L332.432 17.615L328.615 16.4201ZM321.49 47.875H339.898V43.875H321.49V47.875ZM341.807 45.2775L332.774 16.4201L328.957 17.615L337.99 46.4725L341.807 45.2775ZM330.865 15.0176H330.523V19.0176H330.865V15.0176ZM384.625 3.54102H386.625V1.54102H384.625V3.54102ZM388.482 58.5703L387.034 59.9492L387.042 59.9581L387.051 59.967L388.482 58.5703ZM410.26 58.5703L408.82 57.1824L408.819 57.1827L410.26 58.5703ZM414.166 3.54102V1.54102H412.166V3.54102H414.166ZM428.912 3.54102H430.912V1.54102H428.912V3.54102ZM420.855 68.043L422.19 69.5323L422.191 69.5318L420.855 68.043ZM377.887 68.043L376.547 69.5278L376.556 69.5363L377.887 68.043ZM369.879 3.54102V1.54102H367.879V3.54102H369.879ZM382.625 3.54102V47.6328H386.625V3.54102H382.625ZM382.625 47.6328C382.625 52.6113 384.031 56.7941 387.034 59.9492L389.931 57.1914C387.791 54.9429 386.625 51.834 386.625 47.6328H382.625ZM387.051 59.967C390.123 63.1157 394.34 64.5742 399.42 64.5742V60.5742C395.125 60.5742 392.05 59.3635 389.914 57.1737L387.051 59.967ZM399.42 64.5742C404.471 64.5742 408.66 63.1133 411.7 59.9579L408.819 57.1827C406.716 59.3658 403.679 60.5742 399.42 60.5742V64.5742ZM411.7 59.9583C414.74 56.8041 416.166 52.6182 416.166 47.6328H412.166C412.166 51.8272 410.988 54.9328 408.82 57.1824L411.7 59.9583ZM416.166 47.6328V3.54102H412.166V47.6328H416.166ZM414.166 5.54102H428.912V1.54102H414.166V5.54102ZM426.912 3.54102V49.0977H430.912V3.54102H426.912ZM426.912 49.0977C426.912 56.3948 424.43 62.1497 419.52 66.5541L422.191 69.5318C428.023 64.3008 430.912 57.4255 430.912 49.0977H426.912ZM419.521 66.5537C414.634 70.9339 408.006 73.2207 399.42 73.2207V77.2207C408.737 77.2207 416.4 74.7224 422.19 69.5323L419.521 66.5537ZM399.42 73.2207C390.799 73.2207 384.137 70.9329 379.217 66.5497L376.556 69.5363C382.379 74.7233 390.072 77.2207 399.42 77.2207V73.2207ZM379.227 66.5582C374.347 62.155 371.879 56.399 371.879 49.0977H367.879C367.879 57.4213 370.749 64.2956 376.547 69.5278L379.227 66.5582ZM371.879 49.0977V3.54102H367.879V49.0977H371.879ZM369.879 5.54102H384.625V1.54102H369.879V5.54102ZM455.426 15.0645V13.0645H453.426V15.0645H455.426ZM455.426 37.5254H453.426V39.5254H455.426V37.5254ZM476.764 34.5469L475.384 33.0991L475.378 33.1046L475.372 33.11L476.764 34.5469ZM476.666 18.1406L475.285 19.5873L475.291 19.5929L475.297 19.5983L476.666 18.1406ZM455.426 48.2188V46.2188H453.426V48.2188H455.426ZM455.426 74V76H457.426V74H455.426ZM440.68 74H438.68V76H440.68V74ZM440.68 3.54102V1.54102H438.68V3.54102H440.68ZM488.287 9.54688L486.951 11.0351L486.957 11.0402L486.962 11.0453L488.287 9.54688ZM491.607 38.3066L489.916 37.2398L489.913 37.2439L491.607 38.3066ZM482.232 46.0215L481.505 44.1583L479.413 44.9748L480.466 46.9588L482.232 46.0215ZM497.076 74V76H500.401L498.843 73.0627L497.076 74ZM480.377 74L478.595 74.9079L479.151 76H480.377V74ZM467.242 48.2188L469.024 47.3108L468.468 46.2188H467.242V48.2188ZM453.426 15.0645V37.5254H457.426V15.0645H453.426ZM455.426 39.5254H468.121V35.5254H455.426V39.5254ZM468.121 39.5254C472.19 39.5254 475.629 38.4292 478.155 35.9837L475.372 33.11C473.797 34.6359 471.474 35.5254 468.121 35.5254V39.5254ZM478.144 35.9946C480.708 33.5503 481.889 30.2277 481.889 26.2949H477.889C477.889 29.3934 476.986 31.5721 475.384 33.0991L478.144 35.9946ZM481.889 26.2949C481.889 22.4211 480.651 19.1404 478.035 16.6829L475.297 19.5983C476.978 21.1773 477.889 23.3328 477.889 26.2949H481.889ZM478.047 16.6939C475.446 14.211 472.011 13.0645 467.975 13.0645V17.0645C471.23 17.0645 473.589 17.9687 475.285 19.5873L478.047 16.6939ZM467.975 13.0645H455.426V17.0645H467.975V13.0645ZM453.426 48.2188V74H457.426V48.2188H453.426ZM455.426 72H440.68V76H455.426V72ZM442.68 74V3.54102H438.68V74H442.68ZM440.68 5.54102H469.537V1.54102H440.68V5.54102ZM469.537 5.54102C477.255 5.54102 482.968 7.45937 486.951 11.0351L489.623 8.05867C484.687 3.62657 477.9 1.54102 469.537 1.54102V5.54102ZM486.962 11.0453C490.952 14.5723 493.025 19.4708 493.025 26.002H497.025C497.025 18.5357 494.607 12.4642 489.612 8.04847L486.962 11.0453ZM493.025 26.002C493.025 30.2435 491.978 33.9698 489.916 37.2398L493.299 39.3735C495.794 35.4169 497.025 30.9401 497.025 26.002H493.025ZM489.913 37.2439C487.899 40.4544 485.117 42.7491 481.505 44.1583L482.96 47.8846C487.356 46.1689 490.823 43.3204 493.302 39.3694L489.913 37.2439ZM480.466 46.9588L495.309 74.9373L498.843 73.0627L483.999 45.0842L480.466 46.9588ZM497.076 72H480.377V76H497.076V72ZM482.159 73.0921L469.024 47.3108L465.46 49.1267L478.595 74.9079L482.159 73.0921ZM467.242 46.2188H455.426V50.2188H467.242V46.2188Z" fill="url(#paint0_linear_4_1765)" mask="url(#path-1-outside-1_4_1765)"/>
<defs>
<linearGradient id="paint0_linear_4_1765" x1="206.5" y1="-21" x2="206.5" y2="98" gradientUnits="userSpaceOnUse">
<stop stop-color="white" stop-opacity="0.3"/>
<stop offset="0.760417" stop-color="white" stop-opacity="0"/>
</linearGradient>
</defs>
</svg>
