<svg width="198" height="62" viewBox="0 0 198 62" fill="none" xmlns="http://www.w3.org/2000/svg">
<path d="M0.982031 13.8957C2.96719 13.2395 4.8293 12.6324 6.56836 12.0746C8.32383 11.5168 10.1695 10.9918 12.1055 10.4996C14.0414 9.99102 15.8953 9.58906 17.6672 9.29375C19.0289 9.06406 20.4234 8.94922 21.8508 8.94922C24.2297 8.94922 25.7883 9.01485 26.5266 9.1461C27.6422 9.35938 28.6922 9.70391 29.6766 10.1797C30.6773 10.6555 31.5633 11.2953 32.3344 12.0992C33.1219 12.8867 33.7617 13.8219 34.2539 14.9047C34.4508 15.3477 34.5492 15.8152 34.5492 16.3074C34.5492 18.1449 33.5402 20.409 31.5223 23.0996C29.5207 25.7902 27.5027 28.1363 25.4684 30.1379C23.4504 32.1395 21.941 33.575 20.9402 34.4445L25.3699 49.973L18.9223 54.6242L7.62656 22.3613C7.59375 22.3613 7.43789 22.5172 7.15898 22.8289C6.88008 23.1406 6.51094 23.5508 6.05156 24.0594C5.60859 24.5516 5.32969 24.8551 5.21484 24.9699C5.16562 24.9699 5.00156 24.6172 4.72266 23.9117C4.46016 23.2063 4.09922 22.2301 3.63984 20.9832C3.19687 19.7199 2.69648 18.3254 2.13867 16.7996C1.56445 15.2574 1.17891 14.2895 0.982031 13.8957ZM16.9043 20.7371L18.9223 27.9969C19.9395 26.9633 21.2027 25.5523 22.7121 23.7641C24.2215 21.9758 24.9762 20.6797 24.9762 19.8758C24.9762 19.5641 24.8449 19.3836 24.5824 19.3344C23.8441 19.1703 23.1141 19.0883 22.3922 19.0883C20.2266 19.0883 18.3973 19.6379 16.9043 20.7371ZM53.0309 26.348C54.1957 26.9715 55.1391 27.8164 55.8609 28.8828C56.5992 29.9328 57.1324 31.1223 57.4605 32.4512C57.8051 33.7637 57.9773 35.1336 57.9773 36.5609C57.9773 37.7422 57.8789 38.8824 57.682 39.9816C57.5016 41.0809 57.2473 42.0898 56.9191 43.0086C56.591 43.9273 56.2055 44.7066 55.7625 45.3465C54.7289 46.8887 53.6215 48.2176 52.4402 49.3332C51.259 50.4488 50.0531 51.3512 48.8227 52.0402C47.5922 52.7129 46.3699 53.2051 45.1559 53.5168C43.9582 53.8449 42.7687 54.009 41.5875 54.009C40.193 54.009 38.8641 53.7875 37.6008 53.3445C36.3539 52.918 35.2875 52.352 34.4016 51.6465C32.9414 50.4324 31.8012 48.8 30.9809 46.7492C30.1605 44.682 29.7504 42.5 29.7504 40.2031C29.7504 36.2492 30.8906 33.0582 33.1711 30.6301C35.1234 28.5465 37.1414 26.9797 39.225 25.9297C41.3086 24.8633 43.4414 24.3301 45.6234 24.3301C46.9031 24.3301 48.1336 24.4941 49.3148 24.8223C50.4961 25.134 51.7348 25.6426 53.0309 26.348ZM51.5789 30.4824C51.3 31.7293 50.693 32.8285 49.7578 33.7801C48.8391 34.7316 47.9367 35.2074 47.0508 35.2074C46.6078 35.2074 46.2141 35.0926 45.8695 34.8629C45.3773 34.4691 45.1312 33.7801 45.1312 32.7957C45.1312 32.041 45.3773 31.2945 45.8695 30.5563C46.3781 29.818 47.1738 29.2355 48.2566 28.809C47.1738 28.809 46.1238 29.0141 45.1066 29.4242C44.1059 29.8344 43.2445 30.3676 42.5227 31.0238C41.8008 31.6637 41.2184 32.3938 40.7754 33.2141C40.3488 34.018 40.1355 34.8301 40.1355 35.6504C40.1355 37.1762 40.841 38.3902 42.252 39.2926C43.5645 40.1293 44.8113 40.5477 45.9926 40.5477C47.1574 40.5477 48.191 40.1621 49.0934 39.391C49.9957 38.6035 50.6848 37.6027 51.1605 36.3887C51.6363 35.1582 51.8742 33.9441 51.8742 32.7465C51.8742 31.9262 51.7758 31.1715 51.5789 30.4824ZM53.8922 11.8777L66.3937 6.63594L68.2148 35.0598L78.5016 29.4242L89.182 31.0238L75.2531 41.7043L88.3699 51.5973L88.9605 61.4656L69.6176 47.5613L70.2328 59.6445L58.5187 59.866L56.3039 17.1195L52.6863 17.9316L53.8922 11.8777ZM106.31 39.391L112.241 46.5523C111.765 47.9305 110.633 49.1938 108.845 50.3422C107.073 51.4906 104.957 52.393 102.496 53.0492C100.051 53.7219 97.6066 54.0582 95.1621 54.0582C92.9965 54.0582 91.0605 53.7711 89.3543 53.1969C87.6644 52.6227 86.3602 51.7531 85.4414 50.5883C83.85 48.5867 83.0543 46.0273 83.0543 42.9102C83.0543 40.4492 83.4973 38.0293 84.3832 35.6504C85.2855 33.2551 86.2371 31.5816 87.2379 30.6301C88.4355 29.498 89.7316 28.5547 91.1262 27.8C92.5371 27.0453 93.9973 26.4793 95.5066 26.102C97.016 25.7246 98.5664 25.5359 100.158 25.5359C102.241 25.5359 104.218 25.8723 106.089 26.5449C107.975 27.2012 109.624 28.1609 111.035 29.4242L97.5246 45.5434C98.7223 45.5434 99.8543 45.2973 100.921 44.8051C102.004 44.2965 102.996 43.5828 103.898 42.6641C104.801 41.7289 105.605 40.6379 106.31 39.391ZM99.4934 33.657C98.6894 33.2469 97.8691 33.0418 97.0324 33.0418C96.1465 33.0418 95.2852 33.2223 94.4484 33.5832C93.6281 33.9441 93.0457 34.3707 92.7012 34.8629C91.684 36.1754 91.1754 37.6191 91.1754 39.1941C91.1754 39.7684 91.2328 40.318 91.3477 40.843C91.4625 41.368 91.6594 42.0898 91.9383 43.0086L99.4934 33.657ZM86.8441 15.9137L99.9609 8.65391L105.596 17.3164L89.6742 20.3434L86.8441 15.9137Z" fill="white"/>
<path d="M125.161 28.9074C124.259 29.0223 123.364 29.3094 122.479 29.7688C121.609 30.2281 120.862 30.7695 120.239 31.393C119.616 32.0164 119.123 32.7055 118.762 33.4602C118.418 34.1984 118.246 34.9285 118.246 35.6504C118.246 37.1434 118.951 38.3574 120.362 39.2926C121.609 40.1293 122.872 40.5477 124.152 40.5477C124.398 40.5477 124.734 40.5148 125.161 40.4492V35.2074C124.718 35.2074 124.324 35.0926 123.98 34.8629C123.487 34.4691 123.241 33.7145 123.241 32.5988C123.241 30.991 123.881 29.7605 125.161 28.9074ZM124.939 5.01172L135.226 0.385159L135.841 33.7063C135.973 34.5594 136.038 35.5273 136.038 36.6102C136.038 37.5617 136.005 38.2672 135.94 38.7266L136.235 53.8121L125.161 54.4027V52.9016C123.356 53.6398 121.535 54.009 119.698 54.009C118.287 54.009 116.958 53.7957 115.711 53.3691C114.48 52.9426 113.414 52.3684 112.512 51.6465C111.052 50.4324 109.911 48.8 109.091 46.7492C108.271 44.682 107.861 42.5 107.861 40.2031C107.861 36.2492 109.001 33.0582 111.281 30.6301C113.25 28.5629 115.276 26.9961 117.36 25.9297C119.46 24.8633 121.601 24.3301 123.783 24.3301C124.39 24.3301 124.849 24.3465 125.161 24.3793L124.939 5.01172ZM156.71 39.391L162.641 46.5523C162.165 47.9305 161.033 49.1938 159.245 50.3422C157.473 51.4906 155.357 52.393 152.896 53.0492C150.451 53.7219 148.007 54.0582 145.562 54.0582C143.396 54.0582 141.461 53.7711 139.754 53.1969C138.064 52.6227 136.76 51.7531 135.841 50.5883C134.25 48.5867 133.454 46.0273 133.454 42.9102C133.454 40.4492 133.897 38.0293 134.783 35.6504C135.686 33.2551 136.637 31.5816 137.638 30.6301C138.836 29.498 140.132 28.5547 141.526 27.8C142.937 27.0453 144.397 26.4793 145.907 26.102C147.416 25.7246 148.966 25.5359 150.558 25.5359C152.641 25.5359 154.618 25.8723 156.489 26.5449C158.375 27.2012 160.024 28.1609 161.435 29.4242L147.925 45.5434C149.122 45.5434 150.254 45.2973 151.321 44.8051C152.404 44.2965 153.396 43.5828 154.298 42.6641C155.201 41.7289 156.005 40.6379 156.71 39.391ZM149.893 33.657C149.089 33.2469 148.269 33.0418 147.432 33.0418C146.546 33.0418 145.685 33.2223 144.848 33.5832C144.028 33.9441 143.446 34.3707 143.101 34.8629C142.084 36.1754 141.575 37.6191 141.575 39.1941C141.575 39.7684 141.633 40.318 141.748 40.843C141.862 41.368 142.059 42.0898 142.338 43.0086L149.893 33.657ZM176.865 48.3242L170.91 56.027L158.211 56.4207L170.516 40.1539L156.612 22.1645L170.098 22.7551L176.865 31.6883L183.608 22.7551L197.119 22.1645L183.214 40.1539L195.519 56.4207L182.796 56.027L176.865 48.3242Z" fill="#CD3131"/>
</svg>
