<svg width="198" height="63" viewBox="0 0 198 63" fill="none" xmlns="http://www.w3.org/2000/svg">
<path d="M0 14.4402C1.99921 13.7789 3.8745 13.1671 5.62587 12.605C7.39377 12.0428 9.2525 11.5137 11.2022 11.0177C13.1518 10.5052 15.0188 10.1001 16.8033 9.80249C18.1746 9.57102 19.579 9.45528 21.0165 9.45528C23.4122 9.45528 24.9819 9.52142 25.7254 9.65369C26.8489 9.86863 27.9063 10.2158 28.8977 10.6953C29.9055 11.1748 30.7977 11.8196 31.5743 12.6297C32.3674 13.4234 33.0117 14.3658 33.5074 15.4571C33.7057 15.9035 33.8048 16.3746 33.8048 16.8707C33.8048 18.7224 32.7886 21.0041 30.7565 23.7156C28.7407 26.4272 26.7084 28.7915 24.6597 30.8086C22.6274 32.8258 21.1073 34.2725 20.0994 35.1487L24.5605 50.7979L18.0673 55.4853L6.69156 22.9716C6.65852 22.9716 6.50156 23.1287 6.22067 23.4428C5.9398 23.757 5.56805 24.1704 5.10541 24.6829C4.65931 25.1789 4.37843 25.4848 4.26277 25.6005C4.2132 25.6005 4.04798 25.245 3.76711 24.5341C3.50275 23.8232 3.13925 22.8394 2.67662 21.5828C2.23052 20.3097 1.72658 18.9043 1.16483 17.3667C0.586542 15.8125 0.198273 14.8371 0 14.4402ZM16.035 21.3348L18.0673 28.651C19.0917 27.6094 20.3638 26.1874 21.8839 24.3853C23.404 22.5831 24.164 21.2769 24.164 20.4668C24.164 20.1527 24.0318 19.9708 23.7674 19.9212C23.0239 19.7558 22.2887 19.6732 21.5617 19.6732C19.3808 19.6732 17.5385 20.227 16.035 21.3348ZM52.4173 26.9893C53.5903 27.6176 54.5404 28.4691 55.2673 29.5438C56.0109 30.602 56.5478 31.8007 56.8783 33.1399C57.2253 34.4626 57.3987 35.8432 57.3987 37.2816C57.3987 38.4721 57.2996 39.6211 57.1013 40.7289C56.9196 41.8367 56.6635 42.8534 56.333 43.7794C56.0026 44.7052 55.6144 45.4906 55.1682 46.1355C54.1273 47.6896 53.0121 49.0289 51.8224 50.1531C50.6329 51.2774 49.4184 52.1868 48.1793 52.8812C46.9401 53.5591 45.7091 54.0551 44.4866 54.3693C43.2804 54.6999 42.0825 54.8653 40.8929 54.8653C39.4885 54.8653 38.1502 54.6421 36.878 54.1956C35.6222 53.7658 34.5483 53.1954 33.6561 52.4844C32.1856 51.2609 31.0373 49.6158 30.2112 47.5491C29.385 45.4658 28.972 43.2668 28.972 40.9521C28.972 36.9674 30.1203 33.7516 32.4169 31.3047C34.383 29.2049 36.4153 27.6259 38.5137 26.5677C40.612 25.4931 42.7599 24.9557 44.9574 24.9557C46.2461 24.9557 47.4853 25.121 48.6749 25.4517C49.8646 25.7659 51.112 26.2784 52.4173 26.9893ZM50.955 31.1558C50.6741 32.4124 50.0628 33.5202 49.121 34.4792C48.1958 35.4381 47.287 35.9176 46.3949 35.9176C45.9487 35.9176 45.5522 35.8019 45.2052 35.5704C44.7095 35.1735 44.4617 34.4792 44.4617 33.4871C44.4617 32.7265 44.7095 31.9742 45.2052 31.2303C45.7174 30.4863 46.5187 29.8992 47.6092 29.4694C46.5187 29.4694 45.4613 29.6761 44.4369 30.0894C43.4291 30.5028 42.5616 31.0401 41.8347 31.7014C41.1077 32.3463 40.5212 33.0821 40.075 33.9088C39.6454 34.7189 39.4306 35.5373 39.4306 36.364C39.4306 37.9016 40.1411 39.1251 41.5621 40.0345C42.8839 40.8777 44.1395 41.2994 45.3292 41.2994C46.5022 41.2994 47.5431 40.9108 48.4519 40.1337C49.3606 39.34 50.0546 38.3315 50.5337 37.108C51.0128 35.868 51.2524 34.6444 51.2524 33.4375C51.2524 32.6108 51.1533 31.8503 50.955 31.1558ZM53.2847 12.4065L65.8747 7.12402L67.7087 35.7688L78.0683 30.0894L88.8243 31.7014L74.7968 42.4649L88.0064 52.4348L88.6012 62.3798L69.1214 48.3675L69.741 60.5446L57.9439 60.7678L55.7135 17.6891L52.0703 18.5075L53.2847 12.4065ZM106.074 40.1337L112.047 47.3506C111.567 48.7395 110.427 50.0127 108.626 51.17C106.842 52.3273 104.711 53.2367 102.233 53.898C99.7702 54.5759 97.3085 54.9149 94.8467 54.9149C92.6658 54.9149 90.7161 54.6255 88.9978 54.0469C87.296 53.4682 85.9825 52.5918 85.0572 51.418C83.4545 49.4008 82.6532 46.8215 82.6532 43.6802C82.6532 41.2001 83.0994 38.7614 83.9915 36.364C84.9002 33.9501 85.8585 32.2636 86.8664 31.3047C88.0725 30.1638 89.3778 29.2131 90.7823 28.4526C92.2031 27.692 93.6737 27.1216 95.1937 26.7414C96.7137 26.361 98.2751 26.1709 99.878 26.1709C101.976 26.1709 103.967 26.5099 105.851 27.1877C107.75 27.8491 109.411 28.8163 110.832 30.0894L97.2259 46.3339C98.4321 46.3339 99.5721 46.0859 100.646 45.5898C101.737 45.0773 102.736 44.358 103.644 43.4322C104.554 42.4897 105.364 41.3903 106.074 40.1337ZM99.2087 34.3551C98.399 33.9418 97.5729 33.7351 96.7303 33.7351C95.8381 33.7351 94.9707 33.917 94.128 34.2807C93.3019 34.6444 92.7153 35.0743 92.3684 35.5704C91.344 36.8931 90.8318 38.348 90.8318 39.9352C90.8318 40.514 90.8896 41.0679 91.0053 41.5969C91.1209 42.126 91.3192 42.8534 91.6001 43.7794L99.2087 34.3551ZM86.4698 16.4739L99.6795 9.15768L105.354 17.8875L89.32 20.938L86.4698 16.4739Z" fill="black"/>
<path d="M126.231 29.8911C125.332 30.0076 124.439 30.2985 123.556 30.7641C122.689 31.2296 121.944 31.7783 121.322 32.4102C120.701 33.042 120.209 33.7404 119.849 34.5053C119.506 35.2534 119.334 35.9934 119.334 36.725C119.334 38.2381 120.038 39.4685 121.445 40.4163C122.689 41.2642 123.948 41.6883 125.225 41.6883C125.47 41.6883 125.805 41.6549 126.231 41.5885V36.276C125.789 36.276 125.396 36.1597 125.053 35.9269C124.562 35.5278 124.316 34.763 124.316 33.6323C124.316 32.0028 124.955 30.7557 126.231 29.8911ZM126.01 5.67341L136.27 0.984497L136.883 34.7547C137.015 35.6193 137.08 36.6002 137.08 37.6977C137.08 38.662 137.047 39.3771 136.982 39.8426L137.276 55.1314L126.231 55.73V54.2087C124.431 54.9568 122.615 55.331 120.783 55.331C119.375 55.331 118.05 55.1148 116.806 54.6825C115.578 54.2502 114.515 53.6683 113.616 52.9367C112.159 51.7062 111.021 50.0518 110.204 47.9734C109.386 45.8783 108.977 43.6669 108.977 41.339C108.977 37.3319 110.114 34.0979 112.388 31.637C114.352 29.542 116.372 27.9541 118.451 26.8733C120.545 25.7925 122.681 25.2521 124.857 25.2521C125.462 25.2521 125.92 25.2687 126.231 25.302L126.01 5.67341ZM157.697 40.516L163.613 47.7738C163.138 49.1706 162.009 50.4509 160.226 51.6148C158.458 52.7787 156.348 53.6932 153.893 54.3583C151.455 55.04 149.017 55.3809 146.579 55.3809C144.418 55.3809 142.488 55.0899 140.786 54.5079C139.1 53.926 137.8 53.0447 136.883 51.8642C135.296 49.8356 134.502 47.2417 134.502 44.0826C134.502 41.5885 134.944 39.1359 135.828 36.725C136.729 34.2974 137.677 32.6014 138.675 31.637C139.87 30.4897 141.163 29.5337 142.553 28.7688C143.96 28.0039 145.417 27.4303 146.923 27.0479C148.428 26.6654 149.974 26.4742 151.561 26.4742C153.639 26.4742 155.611 26.8151 157.477 27.4968C159.358 28.1619 161.003 29.1346 162.41 30.4149L148.935 46.7513C150.129 46.7513 151.258 46.5019 152.322 46.0031C153.403 45.4876 154.392 44.7643 155.292 43.8332C156.192 42.8854 156.994 41.7797 157.697 40.516ZM150.898 34.7047C150.096 34.2891 149.278 34.0812 148.444 34.0812C147.56 34.0812 146.701 34.2642 145.866 34.6299C145.049 34.9957 144.468 35.428 144.124 35.9269C143.11 37.2571 142.602 38.7202 142.602 40.3164C142.602 40.8985 142.66 41.4555 142.775 41.9876C142.888 42.5196 143.085 43.2512 143.363 44.1823L150.898 34.7047ZM177.799 49.5696L171.86 57.3762L159.194 57.7752L171.467 41.2892L157.6 23.0573L171.05 23.6559L177.799 32.7095L184.525 23.6559L198 23.0573L184.132 41.2892L196.404 57.7752L183.715 57.3762L177.799 49.5696Z" fill="#CD3131"/>
</svg>
