<svg width="21" height="19" viewBox="0 0 21 19" fill="none" xmlns="http://www.w3.org/2000/svg">
<path d="M4.58881 4.36739L4.31268 4.08173V14.9183L4.58881 14.6326C4.6776 14.5438 4.78299 14.4734 4.89899 14.4254C5.01499 14.3773 5.13932 14.3526 5.26487 14.3526C5.39043 14.3526 5.51476 14.3773 5.63075 14.4254C5.74675 14.4734 5.85215 14.5438 5.94093 14.6326C6.02971 14.7214 6.10014 14.8268 6.14819 14.9428C6.19623 15.0588 6.22096 15.1831 6.22096 15.3087C6.22096 15.4342 6.19623 15.5585 6.14819 15.6745C6.10014 15.7905 6.02971 15.8959 5.94093 15.9847L4.03654 17.8891C3.94598 17.9758 3.8392 18.0438 3.72232 18.0891C3.60834 18.1395 3.4851 18.1655 3.36048 18.1655C3.23587 18.1655 3.11263 18.1395 2.99865 18.0891C2.88176 18.0438 2.77498 17.9758 2.68442 17.8891L0.780033 15.9847C0.600731 15.8054 0.5 15.5622 0.5 15.3087C0.5 15.0551 0.600731 14.8119 0.780033 14.6326C0.959334 14.4533 1.20252 14.3526 1.45609 14.3526C1.70966 14.3526 1.95285 14.4533 2.13215 14.6326L2.40829 14.9183V4.08173L2.13215 4.36739C1.95285 4.54669 1.70966 4.64743 1.45609 4.64743C1.20252 4.64743 0.959334 4.54669 0.780033 4.36739C0.600731 4.18809 0.5 3.94491 0.5 3.69133C0.5 3.43776 0.600731 3.19458 0.780033 3.01528L2.68442 1.11089C2.77498 1.0242 2.88176 0.956242 2.99865 0.910923C3.11263 0.860547 3.23587 0.834526 3.36048 0.834526C3.4851 0.834526 3.60834 0.860547 3.72232 0.910923C3.8392 0.956242 3.94598 1.0242 4.03654 1.11089L5.94093 3.01528C6.02971 3.10406 6.10014 3.20945 6.14819 3.32545C6.19623 3.44145 6.22096 3.56578 6.22096 3.69133C6.22096 3.81689 6.19623 3.94122 6.14819 4.05721C6.10014 4.17321 6.02971 4.27861 5.94093 4.36739C5.85215 4.45617 5.74675 4.5266 5.63075 4.57465C5.51476 4.6227 5.39043 4.64743 5.26487 4.64743C5.13932 4.64743 5.01499 4.6227 4.89899 4.57465C4.78299 4.5266 4.6776 4.45617 4.58881 4.36739Z" fill="white"/>
<path d="M11.0259 14.3087H19.5478C19.8003 14.3087 20.0425 14.409 20.2211 14.5876C20.3997 14.7661 20.5 15.0083 20.5 15.2609C20.5 15.5134 20.3997 15.7556 20.2211 15.9342C20.0425 16.1127 19.8003 16.2131 19.5478 16.2131H11.0259C10.7733 16.2131 10.5311 16.1127 10.3525 15.9342C10.174 15.7556 10.0737 15.5134 10.0737 15.2609C10.0737 15.0083 10.174 14.7661 10.3525 14.5876C10.5311 14.409 10.7733 14.3087 11.0259 14.3087Z" fill="white"/>
<path d="M11.0259 8.30865H17.5479C17.8004 8.30865 18.0426 8.40897 18.2212 8.58754C18.3998 8.76611 18.5001 9.0083 18.5001 9.26084C18.5001 9.51338 18.3998 9.75558 18.2212 9.93415C18.0426 10.1127 17.8004 10.213 17.5479 10.213H11.0259C10.7734 10.213 10.5312 10.1127 10.3526 9.93415C10.1741 9.75558 10.0737 9.51338 10.0737 9.26084C10.0737 9.0083 10.1741 8.76611 10.3526 8.58754C10.5312 8.40897 10.7734 8.30865 11.0259 8.30865Z" fill="white"/>
<path d="M11.0259 2.30865H15.5479C15.8004 2.30865 16.0426 2.40897 16.2212 2.58754C16.3998 2.76611 16.5001 3.0083 16.5001 3.26084C16.5001 3.51338 16.3998 3.75558 16.2212 3.93415C16.0426 4.11272 15.8004 4.21304 15.5479 4.21304H11.0259C10.7734 4.21304 10.5312 4.11272 10.3526 3.93415C10.1741 3.75558 10.0737 3.51338 10.0737 3.26084C10.0737 3.0083 10.1741 2.76611 10.3526 2.58754C10.5312 2.40897 10.7734 2.30865 11.0259 2.30865Z" fill="white"/>
</svg>
