<svg width="51" height="51" viewBox="0 0 51 51" fill="none" xmlns="http://www.w3.org/2000/svg">
<circle cx="25.5" cy="25.5" r="25.5" fill="#556AAE"/>
<path fill-rule="evenodd" clip-rule="evenodd" d="M31.0152 37.9134C28.7602 38.0289 26.1785 38.0289 25.3012 37.9134C18.4575 37.0131 13 32.0094 13 25.2461C13 18.4828 18.5964 13 25.5 13C32.4036 13 38 18.4828 38 25.2461C38 28.3917 36.7894 31.2602 34.7998 33.4291C34.2595 34.018 35.0008 34.4311 35.754 34.8508C36.4927 35.2625 37.2428 35.6805 36.8068 36.277C36.3265 36.9342 33.7223 37.7749 31.0152 37.9134ZM23.7422 23.7153C23.7422 24.7721 22.8677 25.6288 21.7891 25.6288C20.7104 25.6288 19.8359 24.7721 19.8359 23.7153C19.8359 23.0066 20.2292 22.3879 20.8137 22.0572C20.8473 22.9786 21.6049 23.7153 22.5346 23.7153H23.7422V23.7153ZM29.7957 22.0572C29.7621 22.9786 29.0044 23.7153 28.0748 23.7153H26.8672V23.7153C26.8672 24.7721 27.7417 25.6288 28.8203 25.6288C29.899 25.6288 30.7734 24.7721 30.7734 23.7153C30.7734 23.0066 30.3801 22.3879 29.7957 22.0572Z" fill="white"/>
</svg>
